<svg xmlns="http://www.w3.org/2000/svg" width="143.358" height="28.263" viewBox="0 0 143.358 28.263"><path fill="#0778BE" d="M0 13.35L13.35 0C6.158.395.396 6.158 0 13.35M28.3 14.14c0-.063-.004-.123-.005-.184H16.893l-2.584-2.584h13.718c-.252-1.274-.678-2.486-1.247-3.613H14.59l2.583-2.584H25.1c-1.196-1.462-2.678-2.678-4.362-3.566l-.092-.047C19.504.97 18.273.527 16.976.263L.262 16.977c.136.67.32 1.32.548 1.953.224.625.493 1.23.8 1.81 2.23 4.226 6.535 7.184 11.56 7.523L3.628 18.72l1.952-1.95 11.27 11.268c1.34-.26 2.613-.71 3.79-1.32L8.133 14.214l1.953-1.952L23.004 25.18c.94-.758 1.786-1.63 2.507-2.602l-5.005-5.007h7.373c.274-1.1.42-2.247.42-3.43"/><path fill="#231F20" d="M35.728 9.444c0-1.062.187-2.026.563-2.89.376-.862.89-1.6 1.54-2.213.65-.61 1.415-1.083 2.297-1.415.88-.33 1.822-.497 2.823-.497 1.025 0 1.994.166 2.907.497.913.332 1.676.78 2.29 1.34l-2.74 3.303c-.25-.325-.562-.572-.937-.74-.376-.17-.795-.254-1.258-.254-.375 0-.725.065-1.05.197-.325.132-.61.323-.853.572-.246.25-.436.554-.574.91-.137.357-.206.755-.206 1.192s.072.828.216 1.172c.144.345.337.64.582.89.243.25.527.442.853.574.326.13.67.196 1.032.196.513 0 .954-.105 1.323-.318.37-.213.66-.463.872-.75l2.74 3.282c-.602.6-1.34 1.078-2.214 1.435-.876.356-1.87.535-2.983.535-1 0-1.942-.17-2.823-.507-.882-.337-1.648-.815-2.298-1.435s-1.164-1.357-1.54-2.214c-.375-.856-.562-1.81-.562-2.86M55.306 9.37c0 .436.065.837.196 1.2.132.362.313.675.544.937.232.263.51.466.835.61.326.144.677.216 1.052.216s.722-.072 1.04-.216c.32-.144.598-.347.836-.61.237-.262.42-.575.553-.938.132-.363.198-.764.198-1.2 0-.426-.066-.817-.197-1.173-.13-.357-.315-.657-.552-.9-.238-.244-.517-.435-.835-.574-.32-.136-.666-.206-1.04-.206s-.727.07-1.052.206c-.324.14-.602.33-.834.574-.23.243-.412.543-.544.9-.13.356-.196.747-.196 1.172m-4.746 0c0-1.063.187-2.023.562-2.88.375-.856.89-1.586 1.548-2.185.657-.6 1.435-1.063 2.335-1.39.9-.323 1.876-.486 2.927-.486 1.05 0 2.025.162 2.926.486.9.326 1.682.788 2.345 1.39.662.598 1.18 1.328 1.557 2.184.375.857.562 1.817.562 2.88 0 1.062-.187 2.03-.562 2.906-.376.876-.895 1.623-1.557 2.242-.663.62-1.445 1.098-2.345 1.435-.9.338-1.876.507-2.926.507-1.05 0-2.026-.17-2.927-.507-.9-.337-1.678-.815-2.335-1.435-.657-.62-1.173-1.366-1.548-2.242-.375-.875-.562-1.844-.562-2.907M73.01 8.41h.877c.148 0 .313-.01.493-.036.18-.025.347-.078.503-.16.154-.08.285-.193.39-.337.106-.143.16-.335.16-.572s-.045-.425-.132-.563c-.086-.137-.197-.24-.334-.31-.136-.067-.285-.11-.446-.13-.162-.02-.31-.028-.447-.028H73.01V8.41zm-4.294-5.607h5.72c.652 0 1.3.065 1.943.197.644.13 1.218.364 1.726.695.506.33.916.775 1.228 1.33.313.557.47 1.255.47 2.092 0 .814-.2 1.53-.6 2.148-.4.62-.973 1.098-1.72 1.435l3.37 5.383h-5.13l-2.544-4.745h-.13v4.745h-4.334V2.803zM91.147 16.084h-4.463v-9.51H83.42v-3.77H94.41v3.77h-3.265M98.422 2.803h9.135v3.715h-4.933V7.66h4.632v3.472h-4.632v1.237h5.25v3.713h-9.452M110.836 2.803h5.046l2.195 8.216h.074l2.103-8.217h5.045l-4.8 13.28h-4.954M132.982 7.437l-1.09 3.282h2.16l-1.07-3.283zm-2.308-4.634h4.746l5.176 13.28h-4.857l-.694-1.95h-4.222l-.655 1.95h-4.73l5.234-13.28zM140.078 3.213v1.58h-.48v-1.58h-.562v-.41h1.603v.41M142.886 4.792l.01-1.407h-.008l-.516 1.407h-.336l-.504-1.407h-.008l.012 1.407h-.453V2.804h.683l.453 1.275h.01l.433-1.276h.695v1.988M40.2 23.1c0-.862-.63-1.483-1.465-1.483-.835 0-1.465.62-1.465 1.483s.63 1.484 1.465 1.484c.834 0 1.465-.622 1.465-1.484m1-2.318v4.637h-1v-.668c-.353.49-.9.787-1.623.787-1.262 0-2.31-1.067-2.31-2.44 0-1.382 1.048-2.438 2.31-2.438.723 0 1.27.297 1.623.78v-.66h1zM46.433 23.052c0-.834-.63-1.455-1.474-1.455-.845 0-1.476.62-1.476 1.455 0 .837.63 1.457 1.475 1.457.843 0 1.473-.62 1.473-1.458m.983-2.27v4.424c0 1.493-1.168 2.188-2.383 2.188-1.02 0-1.808-.38-2.198-1.122l.863-.5c.203.398.547.714 1.354.714.862 0 1.38-.475 1.38-1.28v-.566c-.35.5-.898.807-1.613.807-1.308 0-2.338-1.066-2.338-2.395 0-1.324 1.03-2.392 2.337-2.392.714 0 1.26.307 1.613.808v-.687h.983zM51.385 20.7v1.084c-.658-.047-1.43.26-1.43 1.298v2.337h-1V20.78h1v.778c.28-.63.846-.86 1.43-.86M52.5 20.782h1v4.637h-1V20.78zm-.14-1.336c0-.352.287-.64.64-.64.352 0 .64.288.64.64 0 .344-.288.64-.64.64-.353 0-.64-.296-.64-.64M58.398 24.11c0 .93-.807 1.43-1.81 1.43-.926 0-1.594-.418-1.89-1.086l.86-.5c.15.417.52.667 1.03.667.446 0 .79-.147.79-.518 0-.826-2.495-.362-2.495-2.022 0-.87.75-1.42 1.697-1.42.76 0 1.39.354 1.715.966l-.844.473c-.165-.362-.49-.53-.87-.53-.362 0-.677.16-.677.492 0 .843 2.495.333 2.495 2.05M59.27 23.1c0-1.383 1.047-2.438 2.448-2.438.91 0 1.698.473 2.07 1.195l-.864.5c-.204-.435-.658-.713-1.215-.713-.817 0-1.438.622-1.438 1.456s.62 1.456 1.437 1.456c.556 0 1.01-.287 1.232-.714l.863.49c-.39.733-1.178 1.206-2.087 1.206-1.402 0-2.448-1.066-2.448-2.438M64.9 20.782h1v4.637h-1V20.78zm-.14-1.336c0-.352.29-.64.64-.64s.64.288.64.64c0 .344-.287.64-.64.64s-.64-.296-.64-.64M70.937 22.71c-.14-.798-.723-1.14-1.326-1.14-.75 0-1.26.444-1.4 1.14h2.727zm-1.233 1.91c.556 0 .974-.248 1.196-.573l.825.482c-.425.63-1.12 1.01-2.03 1.01-1.53 0-2.523-1.048-2.523-2.44 0-1.37.992-2.438 2.448-2.438 1.382 0 2.33 1.11 2.33 2.447 0 .14-.02.287-.04.417h-3.69c.156.723.74 1.094 1.484 1.094M77.42 22.57v2.85h-1.002v-2.746c0-.705-.408-1.076-1.04-1.076-.657 0-1.177.39-1.177 1.336v2.485h-1V20.78h1.002v.593c.307-.482.807-.713 1.438-.713 1.038 0 1.78.704 1.78 1.91M78.608 23.1c0-1.383 1.047-2.438 2.447-2.438.91 0 1.7.473 2.07 1.195l-.863.5c-.204-.435-.658-.713-1.215-.713-.816 0-1.438.622-1.438 1.456s.62 1.456 1.437 1.456c.557 0 1.01-.287 1.232-.714l.862.49c-.39.733-1.178 1.206-2.088 1.206-1.4 0-2.446-1.066-2.446-2.438M87.668 22.71c-.14-.798-.725-1.14-1.326-1.14-.752 0-1.26.444-1.4 1.14h2.726zm-1.232 1.91c.556 0 .974-.248 1.195-.573l.826.482c-.427.63-1.12 1.01-2.03 1.01-1.53 0-2.523-1.048-2.523-2.44 0-1.37.992-2.438 2.45-2.438 1.38 0 2.327 1.11 2.327 2.447 0 .14-.02.287-.037.417h-3.69c.155.723.74 1.094 1.483 1.094"/></svg>