<svg xmlns="http://www.w3.org/2000/svg" width="254.568" height="35.746" viewBox="0 0 254.568 35.746"><path fill="#231F20" d="M3.462 14.52c0 .653-.53 1.18-1.183 1.18s-1.183-.527-1.183-1.18c0-.652.53-1.178 1.182-1.178.653 0 1.182.526 1.182 1.18m-.087 0c0-.612-.49-1.102-1.095-1.102-.604 0-1.097.49-1.097 1.1 0 .61.493 1.102 1.097 1.102s1.095-.49 1.095-1.1m-.883.12l.275.483h-.173l-.255-.455h-.253v.455H1.93v-1.208h.363c.304 0 .443.186.443.378 0 .166-.078.294-.244.346m-.192-.12c.19 0 .28-.088.28-.225 0-.133-.095-.228-.28-.228h-.213v.454H2.3z"/><path fill="none" stroke="#231F20" stroke-width=".2" stroke-linecap="round" stroke-linejoin="round" stroke-miterlimit="10" d="M3.462 14.52c0 .653-.53 1.18-1.183 1.18s-1.183-.527-1.183-1.18c0-.652.53-1.178 1.182-1.178.653 0 1.182.526 1.182 1.18zm-.087 0c0-.61-.49-1.1-1.095-1.1-.604 0-1.097.49-1.097 1.1 0 .61.493 1.102 1.097 1.102s1.095-.49 1.095-1.1zm-.883.12l.275.485h-.173l-.255-.455h-.253v.455H1.93v-1.208h.363c.304 0 .443.186.443.378 0 .166-.078.294-.244.346zm-.192-.12c.19 0 .28-.088.28-.225 0-.133-.095-.228-.28-.228h-.213v.454H2.3z"/><path fill="#231F20" d="M4.29 18.416h-.22l.182-.998h.297"/><path fill="none" stroke="#231F20" stroke-width=".3" stroke-linecap="round" stroke-linejoin="round" stroke-miterlimit="10" d="M4.29 18.416h-.22l.182-.998h.297z"/><path fill="#231F20" d="M6.558 13.8h-.526v1.557h-.13V13.8h-.527v-.12h1.183"/><path fill="none" stroke="#231F20" stroke-width=".3" stroke-linecap="round" stroke-linejoin="round" stroke-miterlimit="10" d="M6.558 13.8h-.526v1.557h-.13V13.8h-.527v-.12h1.183z"/><path fill="#231F20" d="M8.58 15.357h-.126v-1.49l-.62 1.03H7.81l-.62-1.03v1.49h-.128V13.68h.158l.6.99.598-.99h.16"/><path fill="none" stroke="#231F20" stroke-width=".3" stroke-linecap="round" stroke-linejoin="round" stroke-miterlimit="10" d="M8.58 15.357h-.126v-1.49l-.62 1.03H7.81l-.62-1.03v1.49h-.128V13.68h.158l.6.99.598-.99h.16z"/><path fill="#231F20" d="M9.55 18.416h-.22l.182-.998h.297"/><path fill="none" stroke="#231F20" stroke-width=".3" stroke-linecap="round" stroke-linejoin="round" stroke-miterlimit="10" d="M9.55 18.416h-.22l.182-.998h.297z"/><path fill="#231F20" d="M10.687 14.988l.11-.064c.058.2.228.337.503.337.28 0 .422-.142.422-.334 0-.202-.178-.278-.434-.36-.28-.09-.53-.17-.53-.462 0-.275.222-.45.507-.45.275 0 .457.158.54.352l-.11.06c-.062-.15-.19-.29-.43-.29-.232 0-.38.137-.38.323 0 .2.17.263.41.342.298.098.557.192.557.482 0 .278-.22.46-.552.46-.313 0-.536-.16-.613-.396"/><path fill="none" stroke="#231F20" stroke-width=".3" stroke-linecap="round" stroke-linejoin="round" stroke-miterlimit="10" d="M10.687 14.988l.11-.064c.058.2.228.337.503.337.28 0 .422-.142.422-.334 0-.202-.178-.278-.434-.36-.28-.09-.53-.17-.53-.462 0-.275.222-.45.507-.45.275 0 .457.158.54.352l-.11.06c-.062-.15-.19-.29-.43-.29-.232 0-.38.137-.38.323 0 .2.17.263.41.342.298.098.557.192.557.482 0 .278-.22.46-.552.46-.313 0-.536-.16-.613-.396z"/><path fill="#231F20" d="M13.92 15.357h-.126v-1.49l-.62 1.03h-.022l-.62-1.03v1.49h-.127V13.68h.158l.6.99.598-.99h.16"/><path fill="none" stroke="#231F20" stroke-width=".3" stroke-linecap="round" stroke-linejoin="round" stroke-miterlimit="10" d="M13.92 15.357h-.126v-1.49l-.62 1.03h-.022l-.62-1.03v1.49h-.127V13.68h.158l.6.99.598-.99h.16z"/><path fill="#231F20" d="M21.144 18.086h-.36v-4.224l-1.758 2.92h-.062l-1.758-2.92v4.224h-.36v-4.753h.448l1.698 2.812 1.697-2.812h.454"/><path fill="none" stroke="#231F20" stroke-width=".3" stroke-linecap="round" stroke-linejoin="round" stroke-miterlimit="10" d="M21.144 18.086h-.36v-4.224l-1.758 2.92h-.062l-1.758-2.92v4.224h-.36v-4.753h.448l1.698 2.812 1.697-2.812h.454z"/><path fill="#231F20" d="M25.66 14.69v3.396h-.345v-.767c-.285.508-.81.84-1.46.84-.965 0-1.76-.766-1.76-1.77s.795-1.773 1.76-1.773c.65 0 1.175.333 1.46.84v-.766h.346zm-.345 1.7c0-.81-.625-1.447-1.433-1.447-.81 0-1.44.637-1.44 1.446 0 .807.632 1.445 1.44 1.445.808 0 1.433-.638 1.433-1.446"/><path fill="none" stroke="#231F20" stroke-width=".3" stroke-linecap="round" stroke-linejoin="round" stroke-miterlimit="10" d="M25.66 14.69v3.396h-.345v-.767c-.285.508-.81.84-1.46.84-.965 0-1.76-.766-1.76-1.77s.795-1.773 1.76-1.773c.65 0 1.175.333 1.46.84v-.766h.346zm-.345 1.7c0-.81-.625-1.447-1.433-1.447-.81 0-1.44.637-1.44 1.446 0 .807.632 1.445 1.44 1.445.808 0 1.433-.638 1.433-1.446z"/><path fill="#231F20" d="M28.25 14.644v.326c-.584 0-1.134.36-1.134 1.23v1.886h-.34V14.69h.34v.667c.23-.536.672-.713 1.134-.713"/><path fill="none" stroke="#231F20" stroke-width=".3" stroke-linecap="round" stroke-linejoin="round" stroke-miterlimit="10" d="M28.25 14.644v.326c-.584 0-1.134.36-1.134 1.23v1.886h-.34V14.69h.34v.667c.23-.536.672-.713 1.134-.713z"/><path fill="#231F20" d="M28.773 16.39c0-1.006.76-1.773 1.786-1.773.664 0 1.234.34 1.478.87l-.278.162c-.196-.43-.658-.707-1.2-.707-.823 0-1.44.637-1.44 1.446 0 .807.617 1.445 1.44 1.445.55 0 .997-.285 1.22-.706l.286.168c-.27.524-.842.862-1.507.862-1.026 0-1.787-.766-1.787-1.77"/><path fill="none" stroke="#231F20" stroke-width=".3" stroke-linecap="round" stroke-linejoin="round" stroke-miterlimit="10" d="M28.773 16.39c0-1.006.76-1.773 1.786-1.773.664 0 1.234.34 1.478.87l-.278.162c-.196-.43-.658-.707-1.2-.707-.823 0-1.44.637-1.44 1.446 0 .807.617 1.445 1.44 1.445.55 0 .997-.285 1.22-.706l.286.168c-.27.524-.842.862-1.507.862-1.026 0-1.787-.766-1.787-1.77z"/><path fill="#231F20" d="M36.215 14.69v3.396h-.345v-.767c-.285.508-.81.84-1.46.84-.965 0-1.76-.766-1.76-1.77s.795-1.773 1.76-1.773c.65 0 1.175.333 1.46.84v-.766h.345zm-.345 1.7c0-.81-.625-1.447-1.433-1.447-.81 0-1.44.637-1.44 1.446 0 .807.632 1.445 1.44 1.445.808 0 1.433-.638 1.433-1.446"/><path fill="none" stroke="#231F20" stroke-width=".3" stroke-linecap="round" stroke-linejoin="round" stroke-miterlimit="10" d="M36.215 14.69v3.396h-.345v-.767c-.285.508-.81.84-1.46.84-.965 0-1.76-.766-1.76-1.77s.795-1.773 1.76-1.773c.65 0 1.175.333 1.46.84v-.766h.345zm-.345 1.7c0-.81-.625-1.447-1.433-1.447-.81 0-1.44.637-1.44 1.446 0 .807.632 1.445 1.44 1.445.808 0 1.433-.638 1.433-1.446z"/><path fill="#231F20" d="M39.62 17.197c0 .557-.49.964-1.216.964-.68 0-1.127-.317-1.29-.752l.292-.17c.122.366.488.598.998.598.476 0 .876-.21.876-.64 0-.922-2.058-.393-2.058-1.615 0-.535.462-.963 1.154-.963.55 0 .97.265 1.154.68l-.285.162c-.143-.354-.495-.517-.87-.517-.44 0-.813.23-.813.638 0 .91 2.058.375 2.058 1.617"/><path fill="none" stroke="#231F20" stroke-width=".3" stroke-linecap="round" stroke-linejoin="round" stroke-miterlimit="10" d="M39.62 17.197c0 .557-.49.964-1.216.964-.68 0-1.127-.317-1.29-.752l.292-.17c.122.366.488.598.998.598.476 0 .876-.21.876-.64 0-.922-2.058-.393-2.058-1.615 0-.535.462-.963 1.154-.963.55 0 .97.265 1.154.68l-.285.162c-.143-.354-.495-.517-.87-.517-.44 0-.813.23-.813.638 0 .91 2.058.375 2.058 1.617z"/><path fill="#231F20" d="M43.864 14.644v.326c-.584 0-1.134.36-1.134 1.23v1.886h-.34V14.69h.34v.667c.23-.536.672-.713 1.134-.713"/><path fill="none" stroke="#231F20" stroke-width=".3" stroke-linecap="round" stroke-linejoin="round" stroke-miterlimit="10" d="M43.864 14.644v.326c-.584 0-1.134.36-1.134 1.23v1.886h-.34V14.69h.34v.667c.23-.536.672-.713 1.134-.713z"/><path fill="#231F20" d="M47.824 16.403c0 .054-.007.108-.007.162h-3.075c.08.768.665 1.27 1.438 1.27.558 0 .98-.257 1.175-.618l.3.177c-.28.462-.81.767-1.48.767-1.046 0-1.787-.745-1.787-1.77 0-1 .72-1.773 1.76-1.773 1.03 0 1.676.855 1.676 1.786m-3.082-.17h2.73c-.075-.828-.66-1.29-1.324-1.29-.775 0-1.34.536-1.406 1.29"/><path fill="none" stroke="#231F20" stroke-width=".3" stroke-linecap="round" stroke-linejoin="round" stroke-miterlimit="10" d="M47.824 16.403c0 .054-.007.108-.007.162h-3.075c.08.768.665 1.27 1.438 1.27.558 0 .98-.257 1.175-.618l.3.177c-.28.462-.81.767-1.48.767-1.046 0-1.787-.745-1.787-1.77 0-1 .72-1.773 1.76-1.773 1.03 0 1.676.855 1.676 1.786zm-3.082-.17h2.73c-.075-.828-.66-1.29-1.324-1.29-.775 0-1.34.536-1.406 1.29z"/><path fill="#231F20" d="M52.042 14.69v3.233c0 1.02-.754 1.596-1.69 1.596-.795 0-1.358-.32-1.603-.816l.298-.17c.177.36.557.66 1.304.66.85 0 1.352-.496 1.352-1.27v-.626c-.28.524-.802.862-1.46.862-.972 0-1.76-.766-1.76-1.77s.788-1.773 1.76-1.773c.658 0 1.18.34 1.46.862v-.79h.338zm-.34 1.7c0-.81-.63-1.447-1.438-1.447-.81 0-1.44.637-1.44 1.446 0 .807.632 1.445 1.44 1.445.807 0 1.44-.638 1.44-1.446"/><path fill="none" stroke="#231F20" stroke-width=".3" stroke-linecap="round" stroke-linejoin="round" stroke-miterlimit="10" d="M52.042 14.69v3.233c0 1.02-.754 1.596-1.69 1.596-.795 0-1.358-.32-1.603-.816l.298-.17c.177.36.557.66 1.304.66.85 0 1.352-.496 1.352-1.27v-.626c-.28.524-.802.862-1.46.862-.972 0-1.76-.766-1.76-1.77s.788-1.773 1.76-1.773c.658 0 1.18.34 1.46.862v-.79h.338zm-.34 1.7c0-.81-.63-1.447-1.438-1.447-.81 0-1.44.637-1.44 1.446 0 .807.632 1.445 1.44 1.445.807 0 1.44-.638 1.44-1.446z"/><path fill="#231F20" d="M53.054 13.6c0-.144.122-.266.27-.266s.272.122.272.265c0 .148-.122.27-.27.27s-.272-.122-.272-.27m.102 1.09h.34v3.396h-.34V14.69z"/><path fill="none" stroke="#231F20" stroke-width=".3" stroke-linecap="round" stroke-linejoin="round" stroke-miterlimit="10" d="M53.054 13.6c0-.144.122-.266.27-.266s.272.122.272.265c0 .148-.122.27-.27.27s-.272-.122-.272-.27zm.102 1.09h.34v3.396h-.34V14.69z"/><path fill="#231F20" d="M56.9 17.197c0 .557-.49.964-1.217.964-.68 0-1.127-.317-1.29-.752l.292-.17c.122.366.488.598.998.598.476 0 .876-.21.876-.64 0-.922-2.06-.393-2.06-1.615 0-.535.463-.963 1.155-.963.55 0 .97.265 1.154.68l-.286.162c-.143-.354-.495-.517-.87-.517-.44 0-.813.23-.813.638 0 .91 2.06.375 2.06 1.617"/><path fill="none" stroke="#231F20" stroke-width=".3" stroke-linecap="round" stroke-linejoin="round" stroke-miterlimit="10" d="M56.9 17.197c0 .557-.49.964-1.217.964-.68 0-1.127-.317-1.29-.752l.292-.17c.122.366.488.598.998.598.476 0 .876-.21.876-.64 0-.922-2.06-.393-2.06-1.615 0-.535.463-.963 1.155-.963.55 0 .97.265 1.154.68l-.286.162c-.143-.354-.495-.517-.87-.517-.44 0-.813.23-.813.638 0 .91 2.06.375 2.06 1.617z"/><path fill="#231F20" d="M58.514 15.024v2.207c0 .6.32.612 1.012.55v.307c-.89.135-1.357-.082-1.357-.856v-2.206h-.748v-.333h.747v-.848l.345-.1v.95h1.012v.332h-1.013z"/><path fill="none" stroke="#231F20" stroke-width=".3" stroke-linecap="round" stroke-linejoin="round" stroke-miterlimit="10" d="M58.514 15.024v2.207c0 .6.32.612 1.012.55v.307c-.89.135-1.357-.082-1.357-.856v-2.206h-.748v-.333h.747v-.848l.345-.1v.95h1.012v.332h-1.013z"/><path fill="#231F20" d="M61.883 14.644v.326c-.584 0-1.134.36-1.134 1.23v1.886h-.34V14.69h.34v.667c.23-.536.67-.713 1.133-.713"/><path fill="none" stroke="#231F20" stroke-width=".3" stroke-linecap="round" stroke-linejoin="round" stroke-miterlimit="10" d="M61.883 14.644v.326c-.584 0-1.134.36-1.134 1.23v1.886h-.34V14.69h.34v.667c.23-.536.67-.713 1.133-.713z"/><path fill="#231F20" d="M65.97 14.69v3.396h-.345v-.767c-.285.508-.81.84-1.46.84-.965 0-1.76-.766-1.76-1.77s.795-1.773 1.76-1.773c.65 0 1.175.333 1.46.84v-.766h.346zm-.345 1.7c0-.81-.625-1.447-1.433-1.447-.81 0-1.44.637-1.44 1.446 0 .807.632 1.445 1.44 1.445.808 0 1.433-.638 1.433-1.446"/><path fill="none" stroke="#231F20" stroke-width=".3" stroke-linecap="round" stroke-linejoin="round" stroke-miterlimit="10" d="M65.97 14.69v3.396h-.345v-.767c-.285.508-.81.84-1.46.84-.965 0-1.76-.766-1.76-1.77s.795-1.773 1.76-1.773c.65 0 1.175.333 1.46.84v-.766h.346zm-.345 1.7c0-.81-.625-1.447-1.433-1.447-.81 0-1.44.637-1.44 1.446 0 .807.632 1.445 1.44 1.445.808 0 1.433-.638 1.433-1.446z"/><path fill="#231F20" d="M70.42 13.333v4.753h-.34v-.788c-.277.524-.8.862-1.46.862-.97 0-1.758-.766-1.758-1.77s.787-1.773 1.76-1.773c.657 0 1.18.34 1.46.862v-2.147h.338zm-.338 3.056c0-.81-.632-1.447-1.44-1.447-.808 0-1.438.637-1.438 1.446 0 .807.63 1.445 1.44 1.445.806 0 1.438-.638 1.438-1.446"/><path fill="none" stroke="#231F20" stroke-width=".3" stroke-linecap="round" stroke-linejoin="round" stroke-miterlimit="10" d="M70.42 13.333v4.753h-.34v-.788c-.277.524-.8.862-1.46.862-.97 0-1.758-.766-1.758-1.77s.787-1.773 1.76-1.773c.657 0 1.18.34 1.46.862v-2.147h.338zm-.338 3.056c0-.81-.632-1.447-1.44-1.447-.808 0-1.438.637-1.438 1.446 0 .807.63 1.445 1.44 1.445.806 0 1.438-.638 1.438-1.446z"/><path fill="#231F20" d="M74.87 14.69v3.396h-.347v-.767c-.285.508-.81.84-1.46.84-.964 0-1.76-.766-1.76-1.77s.796-1.773 1.76-1.773c.65 0 1.175.333 1.46.84v-.766h.346zm-.347 1.7c0-.81-.625-1.447-1.433-1.447-.81 0-1.44.637-1.44 1.446 0 .807.632 1.445 1.44 1.445.808 0 1.433-.638 1.433-1.446"/><path fill="none" stroke="#231F20" stroke-width=".3" stroke-linecap="round" stroke-linejoin="round" stroke-miterlimit="10" d="M74.87 14.69v3.396h-.347v-.767c-.285.508-.81.84-1.46.84-.964 0-1.76-.766-1.76-1.77s.796-1.773 1.76-1.773c.65 0 1.175.333 1.46.84v-.766h.346zm-.347 1.7c0-.81-.625-1.447-1.433-1.447-.81 0-1.44.637-1.44 1.446 0 .807.632 1.445 1.44 1.445.808 0 1.433-.638 1.433-1.446z"/><path fill="#231F20" d="M78.273 17.197c0 .557-.49.964-1.216.964-.68 0-1.127-.317-1.29-.752l.292-.17c.12.366.488.598.997.598.476 0 .876-.21.876-.64 0-.922-2.058-.393-2.058-1.615 0-.535.462-.963 1.154-.963.55 0 .97.265 1.153.68l-.285.162c-.143-.354-.495-.517-.87-.517-.44 0-.813.23-.813.638 0 .91 2.058.375 2.058 1.617"/><path fill="none" stroke="#231F20" stroke-width=".3" stroke-linecap="round" stroke-linejoin="round" stroke-miterlimit="10" d="M78.273 17.197c0 .557-.49.964-1.216.964-.68 0-1.127-.317-1.29-.752l.292-.17c.12.366.488.598.997.598.476 0 .876-.21.876-.64 0-.922-2.058-.393-2.058-1.615 0-.535.462-.963 1.154-.963.55 0 .97.265 1.153.68l-.285.162c-.143-.354-.495-.517-.87-.517-.44 0-.813.23-.813.638 0 .91 2.058.375 2.058 1.617z"/><path fill="#231F20" d="M80.814 16.39c0-1.006.795-1.773 1.786-1.773.984 0 1.778.767 1.778 1.772s-.794 1.77-1.778 1.77c-.99 0-1.786-.766-1.786-1.77m3.22 0c0-.81-.626-1.447-1.434-1.447-.81 0-1.44.637-1.44 1.446 0 .807.632 1.445 1.44 1.445.808 0 1.433-.638 1.433-1.446"/><path fill="none" stroke="#231F20" stroke-width=".3" stroke-linecap="round" stroke-linejoin="round" stroke-miterlimit="10" d="M80.814 16.39c0-1.006.795-1.773 1.786-1.773.984 0 1.778.767 1.778 1.772s-.794 1.77-1.778 1.77c-.99 0-1.786-.766-1.786-1.77zm3.22 0c0-.81-.626-1.447-1.434-1.447-.81 0-1.44.637-1.44 1.446 0 .807.632 1.445 1.44 1.445.808 0 1.433-.638 1.433-1.446z"/><path fill="#231F20" d="M88.046 14.69v3.397h-.34v-.646c-.258.504-.692.72-1.215.72-.808 0-1.316-.535-1.316-1.357V14.69h.347v2.113c0 .625.36 1.033 1 1.033.664 0 1.187-.435 1.187-1.352V14.69h.34z"/><path fill="none" stroke="#231F20" stroke-width=".3" stroke-linecap="round" stroke-linejoin="round" stroke-miterlimit="10" d="M88.046 14.69v3.397h-.34v-.646c-.258.504-.692.72-1.215.72-.808 0-1.316-.535-1.316-1.357V14.69h.347v2.113c0 .625.36 1.033 1 1.033.664 0 1.187-.435 1.187-1.352V14.69h.34z"/><path fill="#231F20" d="M95.905 15.934v2.152h-.34v-2.152c0-.646-.373-.99-.903-.99-.57 0-1.02.38-1.02 1.248v1.894h-.338v-2.152c0-.646-.347-.99-.87-.99-.556 0-1.052.38-1.052 1.248v1.894h-.34V14.69h.34v.585c.25-.468.658-.658 1.094-.658.495 0 .882.244 1.06.692.243-.477.68-.693 1.133-.693.718 0 1.235.468 1.235 1.317"/><path fill="none" stroke="#231F20" stroke-width=".3" stroke-linecap="round" stroke-linejoin="round" stroke-miterlimit="10" d="M95.905 15.934v2.152h-.34v-2.152c0-.646-.373-.99-.903-.99-.57 0-1.02.38-1.02 1.248v1.894h-.338v-2.152c0-.646-.347-.99-.87-.99-.556 0-1.052.38-1.052 1.248v1.894h-.34V14.69h.34v.585c.25-.468.658-.658 1.094-.658.495 0 .882.244 1.06.692.243-.477.68-.693 1.133-.693.718 0 1.235.468 1.235 1.317z"/><path fill="#231F20" d="M100.265 14.69v3.396h-.346v-.767c-.286.508-.81.84-1.46.84-.965 0-1.76-.766-1.76-1.77s.795-1.773 1.76-1.773c.65 0 1.174.333 1.46.84v-.766h.345zm-.346 1.7c0-.81-.626-1.447-1.434-1.447-.81 0-1.44.637-1.44 1.446 0 .807.632 1.445 1.44 1.445.808 0 1.433-.638 1.433-1.446"/><path fill="none" stroke="#231F20" stroke-width=".3" stroke-linecap="round" stroke-linejoin="round" stroke-miterlimit="10" d="M100.265 14.69v3.396h-.346v-.767c-.286.508-.81.84-1.46.84-.965 0-1.76-.766-1.76-1.77s.795-1.773 1.76-1.773c.65 0 1.174.333 1.46.84v-.766h.345zm-.346 1.7c0-.81-.626-1.447-1.434-1.447-.81 0-1.44.637-1.44 1.446 0 .807.632 1.445 1.44 1.445.808 0 1.433-.638 1.433-1.446z"/><path fill="#231F20" d="M102.853 14.644v.326c-.584 0-1.134.36-1.134 1.23v1.886h-.34V14.69h.34v.667c.23-.536.67-.713 1.133-.713"/><path fill="none" stroke="#231F20" stroke-width=".3" stroke-linecap="round" stroke-linejoin="round" stroke-miterlimit="10" d="M102.853 14.644v.326c-.584 0-1.134.36-1.134 1.23v1.886h-.34V14.69h.34v.667c.23-.536.67-.713 1.133-.713z"/><path fill="#231F20" d="M103.376 16.39c0-1.006.76-1.773 1.786-1.773.665 0 1.235.34 1.48.87l-.28.162c-.195-.43-.657-.707-1.2-.707-.822 0-1.44.637-1.44 1.446 0 .807.618 1.445 1.44 1.445.55 0 .998-.285 1.222-.706l.285.168c-.272.524-.843.862-1.508.862-1.025 0-1.786-.766-1.786-1.77"/><path fill="none" stroke="#231F20" stroke-width=".3" stroke-linecap="round" stroke-linejoin="round" stroke-miterlimit="10" d="M103.376 16.39c0-1.006.76-1.773 1.786-1.773.665 0 1.235.34 1.48.87l-.28.162c-.195-.43-.657-.707-1.2-.707-.822 0-1.44.637-1.44 1.446 0 .807.618 1.445 1.44 1.445.55 0 .998-.285 1.222-.706l.285.168c-.272.524-.843.862-1.508.862-1.025 0-1.786-.766-1.786-1.77z"/><path fill="#231F20" d="M110.82 14.69v3.396h-.346v-.767c-.285.508-.81.84-1.46.84-.964 0-1.76-.766-1.76-1.77s.796-1.773 1.76-1.773c.65 0 1.175.333 1.46.84v-.766h.346zm-.346 1.7c0-.81-.625-1.447-1.433-1.447s-1.438.637-1.438 1.446c0 .807.63 1.445 1.44 1.445.807 0 1.432-.638 1.432-1.446"/><path fill="none" stroke="#231F20" stroke-width=".3" stroke-linecap="round" stroke-linejoin="round" stroke-miterlimit="10" d="M110.82 14.69v3.396h-.346v-.767c-.285.508-.81.84-1.46.84-.964 0-1.76-.766-1.76-1.77s.796-1.773 1.76-1.773c.65 0 1.175.333 1.46.84v-.766h.346zm-.346 1.7c0-.81-.625-1.447-1.433-1.447s-1.438.637-1.438 1.446c0 .807.63 1.445 1.44 1.445.807 0 1.432-.638 1.432-1.446z"/><path fill="#231F20" d="M114.223 17.197c0 .557-.49.964-1.216.964-.68 0-1.127-.317-1.29-.752l.292-.17c.12.366.487.598.997.598.476 0 .876-.21.876-.64 0-.922-2.058-.393-2.058-1.615 0-.535.46-.963 1.154-.963.55 0 .97.265 1.153.68l-.285.162c-.143-.354-.495-.517-.87-.517-.44 0-.813.23-.813.638 0 .91 2.058.375 2.058 1.617"/><path fill="none" stroke="#231F20" stroke-width=".3" stroke-linecap="round" stroke-linejoin="round" stroke-miterlimit="10" d="M114.223 17.197c0 .557-.49.964-1.216.964-.68 0-1.127-.317-1.29-.752l.292-.17c.12.366.487.598.997.598.476 0 .876-.21.876-.64 0-.922-2.058-.393-2.058-1.615 0-.535.46-.963 1.154-.963.55 0 .97.265 1.153.68l-.285.162c-.143-.354-.495-.517-.87-.517-.44 0-.813.23-.813.638 0 .91 2.058.375 2.058 1.617z"/><path fill="#231F20" d="M120.33 13.333v4.753h-.34v-.788c-.278.524-.802.862-1.46.862-.972 0-1.76-.766-1.76-1.77s.788-1.773 1.76-1.773c.658 0 1.182.34 1.46.862v-2.147h.34zm-.34 3.056c0-.81-.632-1.447-1.44-1.447-.808 0-1.438.637-1.438 1.446 0 .807.63 1.445 1.44 1.445.806 0 1.438-.638 1.438-1.446"/><path fill="none" stroke="#231F20" stroke-width=".3" stroke-linecap="round" stroke-linejoin="round" stroke-miterlimit="10" d="M120.33 13.333v4.753h-.34v-.788c-.278.524-.802.862-1.46.862-.972 0-1.76-.766-1.76-1.77s.788-1.773 1.76-1.773c.658 0 1.182.34 1.46.862v-2.147h.34zm-.34 3.056c0-.81-.632-1.447-1.44-1.447-.808 0-1.438.637-1.438 1.446 0 .807.63 1.445 1.44 1.445.806 0 1.438-.638 1.438-1.446z"/><path fill="#231F20" d="M124.648 16.403c0 .054-.007.108-.007.162h-3.074c.08.768.665 1.27 1.44 1.27.556 0 .977-.257 1.173-.618l.298.177c-.278.462-.81.767-1.48.767-1.045 0-1.785-.745-1.785-1.77 0-1 .72-1.773 1.76-1.773 1.03 0 1.675.855 1.675 1.786m-3.082-.17h2.73c-.075-.828-.66-1.29-1.324-1.29-.775 0-1.34.536-1.406 1.29"/><path fill="none" stroke="#231F20" stroke-width=".3" stroke-linecap="round" stroke-linejoin="round" stroke-miterlimit="10" d="M124.648 16.403c0 .054-.007.108-.007.162h-3.074c.08.768.665 1.27 1.44 1.27.556 0 .977-.257 1.173-.618l.298.177c-.278.462-.81.767-1.48.767-1.045 0-1.785-.745-1.785-1.77 0-1 .72-1.773 1.76-1.773 1.03 0 1.675.855 1.675 1.786zm-3.082-.17h2.73c-.075-.828-.66-1.29-1.324-1.29-.775 0-1.34.536-1.406 1.29z"/><path fill="#231F20" d="M129.682 17.197c0 .557-.49.964-1.216.964-.68 0-1.127-.317-1.29-.752l.292-.17c.122.366.488.598.998.598.476 0 .876-.21.876-.64 0-.922-2.058-.393-2.058-1.615 0-.535.462-.963 1.154-.963.55 0 .97.265 1.154.68l-.285.162c-.143-.354-.495-.517-.87-.517-.44 0-.813.23-.813.638 0 .91 2.058.375 2.058 1.617"/><path fill="none" stroke="#231F20" stroke-width=".3" stroke-linecap="round" stroke-linejoin="round" stroke-miterlimit="10" d="M129.682 17.197c0 .557-.49.964-1.216.964-.68 0-1.127-.317-1.29-.752l.292-.17c.122.366.488.598.998.598.476 0 .876-.21.876-.64 0-.922-2.058-.393-2.058-1.615 0-.535.462-.963 1.154-.963.55 0 .97.265 1.154.68l-.285.162c-.143-.354-.495-.517-.87-.517-.44 0-.813.23-.813.638 0 .91 2.058.375 2.058 1.617z"/><path fill="#231F20" d="M133.777 16.403c0 .054-.007.108-.007.162h-3.075c.08.768.665 1.27 1.44 1.27.556 0 .977-.257 1.173-.618l.3.177c-.28.462-.81.767-1.48.767-1.046 0-1.786-.745-1.786-1.77 0-1 .72-1.773 1.76-1.773 1.03 0 1.675.855 1.675 1.786m-3.082-.17h2.73c-.075-.828-.66-1.29-1.324-1.29-.774 0-1.338.536-1.405 1.29"/><path fill="none" stroke="#231F20" stroke-width=".3" stroke-linecap="round" stroke-linejoin="round" stroke-miterlimit="10" d="M133.777 16.403c0 .054-.007.108-.007.162h-3.075c.08.768.665 1.27 1.44 1.27.556 0 .977-.257 1.173-.618l.3.177c-.28.462-.81.767-1.48.767-1.046 0-1.786-.745-1.786-1.77 0-1 .72-1.773 1.76-1.773 1.03 0 1.675.855 1.675 1.786zm-3.082-.17h2.73c-.075-.828-.66-1.29-1.324-1.29-.774 0-1.338.536-1.405 1.29z"/><path fill="#231F20" d="M136.113 14.644v.326c-.583 0-1.133.36-1.133 1.23v1.886h-.34V14.69h.34v.667c.23-.536.672-.713 1.133-.713"/><path fill="none" stroke="#231F20" stroke-width=".3" stroke-linecap="round" stroke-linejoin="round" stroke-miterlimit="10" d="M136.113 14.644v.326c-.583 0-1.133.36-1.133 1.23v1.886h-.34V14.69h.34v.667c.23-.536.672-.713 1.133-.713z"/><path fill="#231F20" d="M139.72 14.69l-1.433 3.397h-.414l-1.44-3.396h.368l1.276 3.043 1.283-3.042"/><path fill="none" stroke="#231F20" stroke-width=".3" stroke-linecap="round" stroke-linejoin="round" stroke-miterlimit="10" d="M139.72 14.69l-1.433 3.397h-.414l-1.44-3.396h.368l1.276 3.043 1.283-3.042z"/><path fill="#231F20" d="M140.305 13.6c0-.144.123-.266.27-.266.15 0 .272.122.272.265 0 .148-.12.27-.27.27-.15 0-.272-.122-.272-.27m.1 1.09h.34v3.396h-.34V14.69z"/><path fill="none" stroke="#231F20" stroke-width=".3" stroke-linecap="round" stroke-linejoin="round" stroke-miterlimit="10" d="M140.305 13.6c0-.144.123-.266.27-.266.15 0 .272.122.272.265 0 .148-.12.27-.27.27-.15 0-.272-.122-.272-.27zm.1 1.09h.34v3.396h-.34V14.69z"/><path fill="#231F20" d="M143.564 18.155v.312c.346.04.617.217.617.51 0 .332-.29.624-1.32.542v-.28c.683.07 1.022-.047 1.022-.264 0-.197-.223-.292-.623-.292v-.53c-.946-.074-1.632-.814-1.632-1.765 0-1.006.762-1.773 1.787-1.773.664 0 1.234.34 1.48.87l-.278.162c-.197-.43-.658-.707-1.2-.707-.823 0-1.44.638-1.44 1.446s.617 1.446 1.44 1.446c.548 0 .997-.285 1.22-.706l.285.17c-.25.48-.76.807-1.358.855"/><path fill="none" stroke="#231F20" stroke-width=".3" stroke-linecap="round" stroke-linejoin="round" stroke-miterlimit="10" d="M143.564 18.155v.312c.346.04.617.217.617.51 0 .332-.29.624-1.32.542v-.28c.683.07 1.022-.047 1.022-.264 0-.197-.223-.292-.623-.292v-.53c-.946-.074-1.632-.814-1.632-1.765 0-1.006.762-1.773 1.787-1.773.664 0 1.234.34 1.48.87l-.278.162c-.197-.43-.658-.707-1.2-.707-.823 0-1.44.638-1.44 1.446s.617 1.446 1.44 1.446c.548 0 .997-.285 1.22-.706l.285.17c-.25.48-.76.807-1.358.855z"/><path fill="#231F20" d="M145.508 16.39c0-1.006.795-1.773 1.787-1.773.984 0 1.777.767 1.777 1.772s-.793 1.77-1.777 1.77c-.992 0-1.787-.766-1.787-1.77m3.22 0c0-.81-.626-1.447-1.433-1.447-.81 0-1.44.637-1.44 1.446 0 .807.632 1.445 1.44 1.445.807 0 1.432-.638 1.432-1.446"/><path fill="none" stroke="#231F20" stroke-width=".3" stroke-linecap="round" stroke-linejoin="round" stroke-miterlimit="10" d="M145.508 16.39c0-1.006.795-1.773 1.787-1.773.984 0 1.777.767 1.777 1.772s-.793 1.77-1.777 1.77c-.992 0-1.787-.766-1.787-1.77zm3.22 0c0-.81-.626-1.447-1.433-1.447-.81 0-1.44.637-1.44 1.446 0 .807.632 1.445 1.44 1.445.807 0 1.432-.638 1.432-1.446z"/><path fill="#231F20" d="M155.172 13.333v4.753h-.34v-.788c-.277.524-.8.862-1.46.862-.97 0-1.76-.766-1.76-1.77s.79-1.773 1.76-1.773c.66 0 1.183.34 1.46.862v-2.147h.34zm-.34 3.056c0-.81-.63-1.447-1.438-1.447-.81 0-1.44.637-1.44 1.446 0 .807.63 1.445 1.44 1.445.807 0 1.438-.638 1.438-1.446"/><path fill="none" stroke="#231F20" stroke-width=".3" stroke-linecap="round" stroke-linejoin="round" stroke-miterlimit="10" d="M155.172 13.333v4.753h-.34v-.788c-.277.524-.8.862-1.46.862-.97 0-1.76-.766-1.76-1.77s.79-1.773 1.76-1.773c.66 0 1.183.34 1.46.862v-2.147h.34zm-.34 3.056c0-.81-.63-1.447-1.438-1.447-.81 0-1.44.637-1.44 1.446 0 .807.63 1.445 1.44 1.445.807 0 1.438-.638 1.438-1.446z"/><path fill="#231F20" d="M159.62 14.69v3.396h-.345v-.767c-.285.508-.81.84-1.46.84-.964 0-1.76-.766-1.76-1.77s.796-1.773 1.76-1.773c.65 0 1.175.333 1.46.84v-.766h.346zm-.345 1.7c0-.81-.625-1.447-1.434-1.447s-1.438.637-1.438 1.446c0 .807.63 1.445 1.44 1.445s1.433-.638 1.433-1.446"/><path fill="none" stroke="#231F20" stroke-width=".3" stroke-linecap="round" stroke-linejoin="round" stroke-miterlimit="10" d="M159.62 14.69v3.396h-.345v-.767c-.285.508-.81.84-1.46.84-.964 0-1.76-.766-1.76-1.77s.796-1.773 1.76-1.773c.65 0 1.175.333 1.46.84v-.766h.346zm-.345 1.7c0-.81-.625-1.447-1.434-1.447s-1.438.637-1.438 1.446c0 .807.63 1.445 1.44 1.445s1.433-.638 1.433-1.446z"/><path fill="#231F20" d="M162.414 15.71c0-1.358 1.025-2.452 2.47-2.452.878 0 1.644.448 2.038 1.14l-.318.184c-.313-.584-.97-.977-1.72-.977-1.25 0-2.11.936-2.11 2.104s.86 2.104 2.11 2.104c.755 0 1.42-.4 1.733-.998l.32.184c-.388.7-1.16 1.16-2.052 1.16-1.446 0-2.47-1.093-2.47-2.45"/><path fill="none" stroke="#231F20" stroke-width=".3" stroke-linecap="round" stroke-linejoin="round" stroke-miterlimit="10" d="M162.414 15.71c0-1.358 1.025-2.452 2.47-2.452.878 0 1.644.448 2.038 1.14l-.318.184c-.313-.584-.97-.977-1.72-.977-1.25 0-2.11.936-2.11 2.104s.86 2.104 2.11 2.104c.755 0 1.42-.4 1.733-.998l.32.184c-.388.7-1.16 1.16-2.052 1.16-1.446 0-2.47-1.093-2.47-2.45z"/><path fill="#231F20" d="M167.555 16.39c0-1.006.795-1.773 1.787-1.773.984 0 1.777.767 1.777 1.772s-.794 1.77-1.778 1.77c-.992 0-1.787-.766-1.787-1.77m3.218 0c0-.81-.625-1.447-1.432-1.447-.808 0-1.438.637-1.438 1.446 0 .807.63 1.445 1.44 1.445.806 0 1.43-.638 1.43-1.446"/><path fill="none" stroke="#231F20" stroke-width=".3" stroke-linecap="round" stroke-linejoin="round" stroke-miterlimit="10" d="M167.555 16.39c0-1.006.795-1.773 1.787-1.773.984 0 1.777.767 1.777 1.772s-.794 1.77-1.778 1.77c-.992 0-1.787-.766-1.787-1.77zm3.218 0c0-.81-.625-1.447-1.432-1.447-.808 0-1.438.637-1.438 1.446 0 .807.63 1.445 1.44 1.445.806 0 1.43-.638 1.43-1.446z"/><path fill="#231F20" d="M173.477 14.644v.326c-.584 0-1.133.36-1.133 1.23v1.886h-.34V14.69h.34v.667c.23-.536.672-.713 1.133-.713"/><path fill="none" stroke="#231F20" stroke-width=".3" stroke-linecap="round" stroke-linejoin="round" stroke-miterlimit="10" d="M173.477 14.644v.326c-.584 0-1.133.36-1.133 1.23v1.886h-.34V14.69h.34v.667c.23-.536.672-.713 1.133-.713z"/><path fill="#231F20" d="M174.957 15.024v2.207c0 .6.32.612 1.012.55v.307c-.89.135-1.358-.082-1.358-.856v-2.206h-.746v-.333h.746v-.848l.346-.1v.95h1.012v.332h-1.013z"/><path fill="none" stroke="#231F20" stroke-width=".3" stroke-linecap="round" stroke-linejoin="round" stroke-miterlimit="10" d="M174.957 15.024v2.207c0 .6.32.612 1.012.55v.307c-.89.135-1.358-.082-1.358-.856v-2.206h-.746v-.333h.746v-.848l.346-.1v.95h1.012v.332h-1.013z"/><path fill="#231F20" d="M180.06 16.403c0 .054-.01.108-.01.162h-3.073c.08.768.664 1.27 1.44 1.27.556 0 .976-.257 1.173-.618l.3.177c-.28.462-.81.767-1.48.767-1.046 0-1.786-.745-1.786-1.77 0-1 .72-1.773 1.758-1.773 1.032 0 1.677.855 1.677 1.786m-3.083-.17h2.73c-.075-.828-.66-1.29-1.325-1.29-.775 0-1.34.536-1.405 1.29"/><path fill="none" stroke="#231F20" stroke-width=".3" stroke-linecap="round" stroke-linejoin="round" stroke-miterlimit="10" d="M180.06 16.403c0 .054-.01.108-.01.162h-3.073c.08.768.664 1.27 1.44 1.27.556 0 .976-.257 1.173-.618l.3.177c-.28.462-.81.767-1.48.767-1.046 0-1.786-.745-1.786-1.77 0-1 .72-1.773 1.758-1.773 1.032 0 1.677.855 1.677 1.786zm-3.083-.17h2.73c-.075-.828-.66-1.29-1.325-1.29-.775 0-1.34.536-1.405 1.29z"/><path fill="#231F20" d="M183.773 14.69l-1.43 3.397h-.417l-1.44-3.396h.368l1.277 3.043 1.284-3.042"/><path fill="none" stroke="#231F20" stroke-width=".3" stroke-linecap="round" stroke-linejoin="round" stroke-miterlimit="10" d="M183.773 14.69l-1.43 3.397h-.417l-1.44-3.396h.368l1.277 3.043 1.284-3.042z"/><path fill="#231F20" d="M187.793 14.69v3.396h-.346v-.767c-.285.508-.81.84-1.46.84-.964 0-1.76-.766-1.76-1.77s.796-1.773 1.76-1.773c.65 0 1.175.333 1.46.84v-.766h.346zm-.346 1.7c0-.81-.625-1.447-1.432-1.447-.81 0-1.44.637-1.44 1.446 0 .807.632 1.445 1.44 1.445.807 0 1.432-.638 1.432-1.446"/><path fill="none" stroke="#231F20" stroke-width=".3" stroke-linecap="round" stroke-linejoin="round" stroke-miterlimit="10" d="M187.793 14.69v3.396h-.346v-.767c-.285.508-.81.84-1.46.84-.964 0-1.76-.766-1.76-1.77s.796-1.773 1.76-1.773c.65 0 1.175.333 1.46.84v-.766h.346zm-.346 1.7c0-.81-.625-1.447-1.432-1.447-.81 0-1.44.637-1.44 1.446 0 .807.632 1.445 1.44 1.445.807 0 1.432-.638 1.432-1.446z"/><path fill="#231F20" d="M189.12 19.037h-.31l.254-1.412h.422"/><path fill="none" stroke="#231F20" stroke-width=".3" stroke-linecap="round" stroke-linejoin="round" stroke-miterlimit="10" d="M189.12 19.037h-.31l.254-1.412h.422z"/><path fill="#231F20" d="M196.467 15.71c0 1.31-.93 2.376-2.24 2.376h-1.785v-4.753h1.785c1.31 0 2.24 1.065 2.24 2.376m-.352 0c0-1.128-.768-2.038-1.89-2.038H192.8v4.074h1.426c1.122 0 1.89-.91 1.89-2.037"/><path fill="none" stroke="#231F20" stroke-width=".3" stroke-linecap="round" stroke-linejoin="round" stroke-miterlimit="10" d="M196.467 15.71c0 1.31-.93 2.376-2.24 2.376h-1.785v-4.753h1.785c1.31 0 2.24 1.065 2.24 2.376zm-.352 0c0-1.128-.768-2.038-1.89-2.038H192.8v4.074h1.426c1.122 0 1.89-.91 1.89-2.037z"/><path fill="#231F20" d="M197.148 16.39c0-1.006.795-1.773 1.785-1.773.984 0 1.78.767 1.78 1.772s-.796 1.77-1.78 1.77c-.99 0-1.785-.766-1.785-1.77m3.22 0c0-.81-.626-1.447-1.435-1.447s-1.44.637-1.44 1.446c0 .807.632 1.445 1.44 1.445s1.434-.638 1.434-1.446"/><path fill="none" stroke="#231F20" stroke-width=".3" stroke-linecap="round" stroke-linejoin="round" stroke-miterlimit="10" d="M197.148 16.39c0-1.006.795-1.773 1.785-1.773.984 0 1.78.767 1.78 1.772s-.796 1.77-1.78 1.77c-.99 0-1.785-.766-1.785-1.77zm3.22 0c0-.81-.626-1.447-1.435-1.447s-1.44.637-1.44 1.446c0 .807.632 1.445 1.44 1.445s1.434-.638 1.434-1.446z"/><path fill="#231F20" d="M206.078 14.69l-1.072 3.397h-.375l-.942-2.893-.944 2.893h-.373l-1.073-3.396h.36l.904 2.955.952-2.954h.353l.95 2.955.904-2.954"/><path fill="none" stroke="#231F20" stroke-width=".3" stroke-linecap="round" stroke-linejoin="round" stroke-miterlimit="10" d="M206.078 14.69l-1.072 3.397h-.375l-.942-2.893-.944 2.893h-.373l-1.073-3.396h.36l.904 2.955.952-2.954h.353l.95 2.955.904-2.954z"/><path fill="#231F20" d="M211.58 16.877h-2.383l-.46 1.21h-.382l1.848-4.754h.38l1.84 4.753h-.38l-.463-1.21zm-.13-.338l-1.058-2.765-1.06 2.764h2.12z"/><path fill="none" stroke="#231F20" stroke-width=".3" stroke-linecap="round" stroke-linejoin="round" stroke-miterlimit="10" d="M211.58 16.877h-2.383l-.46 1.21h-.382l1.848-4.754h.38l1.84 4.753h-.38l-.463-1.21zm-.13-.338l-1.058-2.765-1.06 2.764h2.12z"/><path fill="#231F20" d="M216.47 14.69v3.233c0 1.02-.753 1.596-1.69 1.596-.795 0-1.357-.32-1.602-.816l.3-.17c.175.36.556.66 1.302.66.85 0 1.352-.496 1.352-1.27v-.626c-.277.524-.8.862-1.46.862-.972 0-1.76-.766-1.76-1.77s.788-1.773 1.76-1.773c.66 0 1.183.34 1.46.862v-.79h.34zm-.34 1.7c0-.81-.63-1.447-1.438-1.447s-1.44.637-1.44 1.446c0 .807.632 1.445 1.44 1.445s1.44-.638 1.44-1.446"/><path fill="none" stroke="#231F20" stroke-width=".3" stroke-linecap="round" stroke-linejoin="round" stroke-miterlimit="10" d="M216.47 14.69v3.233c0 1.02-.753 1.596-1.69 1.596-.795 0-1.357-.32-1.602-.816l.3-.17c.175.36.556.66 1.302.66.85 0 1.352-.496 1.352-1.27v-.626c-.277.524-.8.862-1.46.862-.972 0-1.76-.766-1.76-1.77s.788-1.773 1.76-1.773c.66 0 1.183.34 1.46.862v-.79h.34zm-.34 1.7c0-.81-.63-1.447-1.438-1.447s-1.44.637-1.44 1.446c0 .807.632 1.445 1.44 1.445s1.44-.638 1.44-1.446z"/><path fill="#231F20" d="M219.06 14.644v.326c-.585 0-1.136.36-1.136 1.23v1.886h-.34V14.69h.34v.667c.23-.536.672-.713 1.135-.713"/><path fill="none" stroke="#231F20" stroke-width=".3" stroke-linecap="round" stroke-linejoin="round" stroke-miterlimit="10" d="M219.06 14.644v.326c-.585 0-1.136.36-1.136 1.23v1.886h-.34V14.69h.34v.667c.23-.536.672-.713 1.135-.713z"/><path fill="#231F20" d="M219.582 16.39c0-1.006.795-1.773 1.787-1.773.983 0 1.776.767 1.776 1.772s-.793 1.77-1.777 1.77c-.993 0-1.788-.766-1.788-1.77m3.22 0c0-.81-.626-1.447-1.433-1.447-.81 0-1.44.637-1.44 1.446 0 .807.63 1.445 1.44 1.445.806 0 1.43-.638 1.43-1.446"/><path fill="none" stroke="#231F20" stroke-width=".3" stroke-linecap="round" stroke-linejoin="round" stroke-miterlimit="10" d="M219.582 16.39c0-1.006.795-1.773 1.787-1.773.983 0 1.776.767 1.776 1.772s-.793 1.77-1.777 1.77c-.993 0-1.788-.766-1.788-1.77zm3.22 0c0-.81-.626-1.447-1.433-1.447-.81 0-1.44.637-1.44 1.446 0 .807.63 1.445 1.44 1.445.806 0 1.43-.638 1.43-1.446z"/><path fill="#231F20" d="M223.814 17.04l.31-.183c.165.572.647.958 1.43.958.792 0 1.194-.407 1.194-.95 0-.57-.504-.788-1.23-1.02-.793-.257-1.506-.48-1.506-1.31 0-.78.63-1.276 1.44-1.276.778 0 1.296.447 1.526.997l-.307.17c-.175-.428-.542-.822-1.22-.822-.66 0-1.074.387-1.074.917 0 .57.482.747 1.162.97.842.28 1.574.544 1.574 1.365 0 .788-.617 1.304-1.56 1.304-.89 0-1.52-.447-1.738-1.12"/><path fill="none" stroke="#231F20" stroke-width=".3" stroke-linecap="round" stroke-linejoin="round" stroke-miterlimit="10" d="M223.814 17.04l.31-.183c.165.572.647.958 1.43.958.792 0 1.194-.407 1.194-.95 0-.57-.504-.788-1.23-1.02-.793-.257-1.506-.48-1.506-1.31 0-.78.63-1.276 1.44-1.276.778 0 1.296.447 1.526.997l-.307.17c-.175-.428-.542-.822-1.22-.822-.66 0-1.074.387-1.074.917 0 .57.482.747 1.162.97.842.28 1.574.544 1.574 1.365 0 .788-.617 1.304-1.56 1.304-.89 0-1.52-.447-1.738-1.12z"/><path fill="#231F20" d="M227.766 16.39c0-1.006.762-1.773 1.787-1.773.664 0 1.234.34 1.48.87l-.278.162c-.197-.43-.658-.707-1.2-.707-.823 0-1.44.637-1.44 1.446 0 .807.617 1.445 1.44 1.445.548 0 .997-.285 1.22-.706l.285.168c-.27.524-.842.862-1.506.862-1.027 0-1.788-.766-1.788-1.77"/><path fill="none" stroke="#231F20" stroke-width=".3" stroke-linecap="round" stroke-linejoin="round" stroke-miterlimit="10" d="M227.766 16.39c0-1.006.762-1.773 1.787-1.773.664 0 1.234.34 1.48.87l-.278.162c-.197-.43-.658-.707-1.2-.707-.823 0-1.44.637-1.44 1.446 0 .807.617 1.445 1.44 1.445.548 0 .997-.285 1.22-.706l.285.168c-.27.524-.842.862-1.506.862-1.027 0-1.788-.766-1.788-1.77z"/><path fill="#231F20" d="M231.773 13.6c0-.144.123-.266.27-.266.15 0 .272.122.272.265 0 .148-.12.27-.27.27-.15 0-.272-.122-.272-.27m.102 1.09h.34v3.396h-.34V14.69z"/><path fill="none" stroke="#231F20" stroke-width=".3" stroke-linecap="round" stroke-linejoin="round" stroke-miterlimit="10" d="M231.773 13.6c0-.144.123-.266.27-.266.15 0 .272.122.272.265 0 .148-.12.27-.27.27-.15 0-.272-.122-.272-.27zm.102 1.09h.34v3.396h-.34V14.69z"/><path fill="#231F20" d="M236.533 16.403c0 .054-.006.108-.006.162h-3.076c.083.768.667 1.27 1.44 1.27.557 0 .98-.257 1.176-.618l.297.177c-.277.462-.81.767-1.48.767-1.046 0-1.786-.745-1.786-1.77 0-1 .72-1.773 1.76-1.773 1.034 0 1.676.855 1.676 1.786m-3.082-.17h2.73c-.074-.828-.658-1.29-1.322-1.29-.776 0-1.338.536-1.407 1.29"/><path fill="none" stroke="#231F20" stroke-width=".3" stroke-linecap="round" stroke-linejoin="round" stroke-miterlimit="10" d="M236.533 16.403c0 .054-.006.108-.006.162h-3.076c.083.768.667 1.27 1.44 1.27.557 0 .98-.257 1.176-.618l.297.177c-.277.462-.81.767-1.48.767-1.046 0-1.786-.745-1.786-1.77 0-1 .72-1.773 1.76-1.773 1.034 0 1.676.855 1.676 1.786zm-3.082-.17h2.73c-.074-.828-.658-1.29-1.322-1.29-.776 0-1.338.536-1.407 1.29z"/><path fill="#231F20" d="M240.27 15.975v2.11h-.346v-2.11c0-.625-.36-1.032-.998-1.032-.666 0-1.19.434-1.19 1.35v1.793h-.34V14.69h.34v.646c.26-.503.694-.72 1.218-.72.806 0 1.316.537 1.316 1.36"/><path fill="none" stroke="#231F20" stroke-width=".3" stroke-linecap="round" stroke-linejoin="round" stroke-miterlimit="10" d="M240.27 15.975v2.11h-.346v-2.11c0-.625-.36-1.032-.998-1.032-.666 0-1.19.434-1.19 1.35v1.793h-.34V14.69h.34v.646c.26-.503.694-.72 1.218-.72.806 0 1.316.537 1.316 1.36z"/><path fill="#231F20" d="M241.064 16.39c0-1.006.762-1.773 1.787-1.773.665 0 1.235.34 1.48.87l-.277.162c-.197-.43-.658-.707-1.2-.707-.823 0-1.44.637-1.44 1.446 0 .807.617 1.445 1.44 1.445.548 0 .997-.285 1.22-.706l.285.168c-.27.524-.842.862-1.506.862-1.026 0-1.788-.766-1.788-1.77"/><path fill="none" stroke="#231F20" stroke-width=".3" stroke-linecap="round" stroke-linejoin="round" stroke-miterlimit="10" d="M241.064 16.39c0-1.006.762-1.773 1.787-1.773.665 0 1.235.34 1.48.87l-.277.162c-.197-.43-.658-.707-1.2-.707-.823 0-1.44.637-1.44 1.446 0 .807.617 1.445 1.44 1.445.548 0 .997-.285 1.22-.706l.285.168c-.27.524-.842.862-1.506.862-1.026 0-1.788-.766-1.788-1.77z"/><path fill="#231F20" d="M248.38 16.403c0 .054-.007.108-.007.162h-3.076c.082.768.666 1.27 1.44 1.27.556 0 .978-.257 1.175-.618l.297.177c-.278.462-.81.767-1.48.767-1.047 0-1.787-.745-1.787-1.77 0-1 .72-1.773 1.76-1.773 1.033 0 1.676.855 1.676 1.786m-3.083-.17h2.73c-.075-.828-.66-1.29-1.323-1.29-.776 0-1.34.536-1.407 1.29"/><path fill="none" stroke="#231F20" stroke-width=".3" stroke-linecap="round" stroke-linejoin="round" stroke-miterlimit="10" d="M248.38 16.403c0 .054-.007.108-.007.162h-3.076c.082.768.666 1.27 1.44 1.27.556 0 .978-.257 1.175-.618l.297.177c-.278.462-.81.767-1.48.767-1.047 0-1.787-.745-1.787-1.77 0-1 .72-1.773 1.76-1.773 1.033 0 1.676.855 1.676 1.786zm-3.083-.17h2.73c-.075-.828-.66-1.29-1.323-1.29-.776 0-1.34.536-1.407 1.29z"/><path fill="#231F20" d="M251.53 17.197c0 .557-.487.964-1.214.964-.68 0-1.127-.317-1.29-.752l.292-.17c.12.366.488.598.998.598.475 0 .875-.21.875-.64 0-.922-2.056-.393-2.056-1.615 0-.535.46-.963 1.154-.963.55 0 .97.265 1.154.68l-.285.162c-.143-.354-.496-.517-.87-.517-.44 0-.813.23-.813.638 0 .91 2.057.375 2.057 1.617"/><path fill="none" stroke="#231F20" stroke-width=".3" stroke-linecap="round" stroke-linejoin="round" stroke-miterlimit="10" d="M251.53 17.197c0 .557-.487.964-1.214.964-.68 0-1.127-.317-1.29-.752l.292-.17c.12.366.488.598.998.598.475 0 .875-.21.875-.64 0-.922-2.056-.393-2.056-1.615 0-.535.46-.963 1.154-.963.55 0 .97.265 1.154.68l-.285.162c-.143-.354-.496-.517-.87-.517-.44 0-.813.23-.813.638 0 .91 2.057.375 2.057 1.617z"/><path fill="#231F20" d="M252.633 19.037h-.313l.258-1.412h.42"/><path fill="none" stroke="#231F20" stroke-width=".3" stroke-linecap="round" stroke-linejoin="round" stroke-miterlimit="10" d="M252.633 19.037h-.313l.258-1.412h.42z"/><path fill="#231F20" d="M58.06 23.86c0 1.31-.93 2.377-2.24 2.377h-1.787v-4.753h1.786c1.31 0 2.24 1.065 2.24 2.376m-.353 0c0-1.127-.768-2.037-1.888-2.037H54.39v4.074h1.427c1.12 0 1.887-.91 1.887-2.037"/><path fill="none" stroke="#231F20" stroke-width=".3" stroke-linecap="round" stroke-linejoin="round" stroke-miterlimit="10" d="M58.06 23.86c0 1.31-.93 2.377-2.24 2.377h-1.787v-4.753h1.786c1.31 0 2.24 1.065 2.24 2.376zm-.353 0c0-1.127-.768-2.037-1.888-2.037H54.39v4.074h1.427c1.12 0 1.887-.91 1.887-2.037z"/><path fill="#231F20" d="M61.754 22.84v3.397h-.34v-.646c-.258.504-.692.72-1.215.72-.81 0-1.318-.535-1.318-1.356v-2.112h.347v2.112c0 .625.358 1.033.997 1.033.665 0 1.188-.436 1.188-1.353V22.84h.34z"/><path fill="none" stroke="#231F20" stroke-width=".3" stroke-linecap="round" stroke-linejoin="round" stroke-miterlimit="10" d="M61.754 22.84v3.397h-.34v-.646c-.258.504-.692.72-1.215.72-.81 0-1.318-.535-1.318-1.356v-2.112h.347v2.112c0 .625.358 1.033.997 1.033.665 0 1.188-.436 1.188-1.353V22.84h.34z"/><path fill="#231F20" d="M66.034 22.958c0 .835-.625 1.467-1.48 1.467h-1.257v1.813h-.36v-4.753h1.617c.855 0 1.48.63 1.48 1.473m-.36 0c0-.66-.47-1.135-1.12-1.135h-1.258v2.262h1.257c.652 0 1.12-.476 1.12-1.127"/><path fill="none" stroke="#231F20" stroke-width=".3" stroke-linecap="round" stroke-linejoin="round" stroke-miterlimit="10" d="M66.034 22.958c0 .835-.625 1.467-1.48 1.467h-1.257v1.813h-.36v-4.753h1.617c.855 0 1.48.63 1.48 1.473zm-.36 0c0-.66-.47-1.135-1.12-1.135h-1.258v2.262h1.257c.652 0 1.12-.476 1.12-1.127z"/><path fill="#231F20" d="M66.693 24.54c0-1.005.795-1.772 1.786-1.772.983 0 1.777.768 1.777 1.772s-.794 1.77-1.778 1.77c-.992 0-1.787-.766-1.787-1.77m3.22 0c0-.81-.626-1.446-1.434-1.446-.81 0-1.44.638-1.44 1.446 0 .808.63 1.446 1.44 1.446.807 0 1.432-.64 1.432-1.446"/><path fill="none" stroke="#231F20" stroke-width=".3" stroke-linecap="round" stroke-linejoin="round" stroke-miterlimit="10" d="M66.693 24.54c0-1.005.795-1.772 1.786-1.772.983 0 1.777.768 1.777 1.772s-.794 1.77-1.778 1.77c-.992 0-1.787-.766-1.787-1.77zm3.22 0c0-.81-.626-1.446-1.434-1.446-.81 0-1.44.638-1.44 1.446 0 .808.63 1.446 1.44 1.446.807 0 1.432-.64 1.432-1.446z"/><path fill="#231F20" d="M74.014 24.125v2.11h-.347v-2.11c0-.625-.36-1.032-.998-1.032-.667 0-1.19.435-1.19 1.35v1.794h-.34V22.84h.34v.647c.26-.503.693-.72 1.217-.72.807 0 1.317.536 1.317 1.358"/><path fill="none" stroke="#231F20" stroke-width=".3" stroke-linecap="round" stroke-linejoin="round" stroke-miterlimit="10" d="M74.014 24.125v2.11h-.347v-2.11c0-.625-.36-1.032-.998-1.032-.667 0-1.19.435-1.19 1.35v1.794h-.34V22.84h.34v.647c.26-.503.693-.72 1.217-.72.807 0 1.317.536 1.317 1.358z"/><path fill="#231F20" d="M75.767 23.174v2.207c0 .6.32.612 1.012.55v.308c-.89.135-1.358-.082-1.358-.856v-2.207h-.747v-.333h.747v-.85l.346-.1v.95h1.012v.332h-1.013z"/><path fill="none" stroke="#231F20" stroke-width=".3" stroke-linecap="round" stroke-linejoin="round" stroke-miterlimit="10" d="M75.767 23.174v2.207c0 .6.32.612 1.012.55v.308c-.89.135-1.358-.082-1.358-.856v-2.207h-.747v-.333h.747v-.85l.346-.1v.95h1.012v.332h-1.013z"/><path fill="#231F20" d="M79.313 24.54c0-1.005.794-1.772 1.786-1.772.983 0 1.777.768 1.777 1.772s-.794 1.77-1.778 1.77c-.993 0-1.787-.766-1.787-1.77m3.22 0c0-.81-.626-1.446-1.434-1.446-.81 0-1.44.638-1.44 1.446 0 .808.63 1.446 1.44 1.446.807 0 1.432-.64 1.432-1.446"/><path fill="none" stroke="#231F20" stroke-width=".3" stroke-linecap="round" stroke-linejoin="round" stroke-miterlimit="10" d="M79.313 24.54c0-1.005.794-1.772 1.786-1.772.983 0 1.777.768 1.777 1.772s-.794 1.77-1.778 1.77c-.993 0-1.787-.766-1.787-1.77zm3.22 0c0-.81-.626-1.446-1.434-1.446-.81 0-1.44.638-1.44 1.446 0 .808.63 1.446 1.44 1.446.807 0 1.432-.64 1.432-1.446z"/><path fill="#231F20" d="M86.545 22.84v3.397h-.34v-.646c-.258.504-.692.72-1.215.72-.81 0-1.317-.535-1.317-1.356v-2.112h.347v2.112c0 .625.36 1.033.998 1.033.665 0 1.188-.436 1.188-1.353V22.84h.34z"/><path fill="none" stroke="#231F20" stroke-width=".3" stroke-linecap="round" stroke-linejoin="round" stroke-miterlimit="10" d="M86.545 22.84v3.397h-.34v-.646c-.258.504-.692.72-1.215.72-.81 0-1.317-.535-1.317-1.356v-2.112h.347v2.112c0 .625.36 1.033.998 1.033.665 0 1.188-.436 1.188-1.353V22.84h.34z"/><path fill="#231F20" d="M92.707 22.958c0 .835-.625 1.467-1.48 1.467H89.97v1.813h-.36v-4.753h1.616c.856 0 1.48.63 1.48 1.473m-.36 0c0-.66-.47-1.135-1.12-1.135H89.97v2.262h1.256c.65 0 1.12-.476 1.12-1.127"/><path fill="none" stroke="#231F20" stroke-width=".3" stroke-linecap="round" stroke-linejoin="round" stroke-miterlimit="10" d="M92.707 22.958c0 .835-.625 1.467-1.48 1.467H89.97v1.813h-.36v-4.753h1.616c.856 0 1.48.63 1.48 1.473zm-.36 0c0-.66-.47-1.135-1.12-1.135h-1.258v2.262h1.256c.65 0 1.12-.476 1.12-1.127z"/><path fill="#231F20" d="M93.495 21.75c0-.144.122-.266.27-.266s.272.122.272.265c0 .148-.122.27-.27.27s-.272-.122-.272-.27m.1 1.09h.34v3.397h-.34V22.84z"/><path fill="none" stroke="#231F20" stroke-width=".3" stroke-linecap="round" stroke-linejoin="round" stroke-miterlimit="10" d="M93.495 21.75c0-.144.122-.266.27-.266s.272.122.272.265c0 .148-.122.27-.27.27s-.272-.122-.272-.27zm.1 1.09h.34v3.397h-.34V22.84z"/><path fill="#231F20" d="M94.82 24.54c0-1.005.793-1.772 1.785-1.772.984 0 1.778.768 1.778 1.772s-.794 1.77-1.778 1.77c-.992 0-1.786-.766-1.786-1.77m3.218 0c0-.81-.625-1.446-1.433-1.446-.81 0-1.44.638-1.44 1.446 0 .808.632 1.446 1.44 1.446.808 0 1.433-.64 1.433-1.446"/><path fill="none" stroke="#231F20" stroke-width=".3" stroke-linecap="round" stroke-linejoin="round" stroke-miterlimit="10" d="M94.82 24.54c0-1.005.793-1.772 1.785-1.772.984 0 1.778.768 1.778 1.772s-.794 1.77-1.778 1.77c-.992 0-1.786-.766-1.786-1.77zm3.218 0c0-.81-.625-1.446-1.433-1.446-.81 0-1.44.638-1.44 1.446 0 .808.632 1.446 1.44 1.446.808 0 1.433-.64 1.433-1.446z"/><path fill="#231F20" d="M102.14 24.125v2.11h-.347v-2.11c0-.625-.36-1.032-.998-1.032-.666 0-1.188.435-1.188 1.35v1.794h-.34V22.84h.34v.647c.258-.503.692-.72 1.216-.72.807 0 1.317.536 1.317 1.358"/><path fill="none" stroke="#231F20" stroke-width=".3" stroke-linecap="round" stroke-linejoin="round" stroke-miterlimit="10" d="M102.14 24.125v2.11h-.347v-2.11c0-.625-.36-1.032-.998-1.032-.666 0-1.188.435-1.188 1.35v1.794h-.34V22.84h.34v.647c.258-.503.692-.72 1.216-.72.807 0 1.317.536 1.317 1.358z"/><path fill="#231F20" d="M106.372 24.553c0 .054-.007.108-.007.162h-3.075c.08.768.665 1.27 1.438 1.27.558 0 .98-.258 1.176-.618l.298.177c-.278.462-.81.767-1.48.767-1.045 0-1.786-.745-1.786-1.77 0-.998.72-1.772 1.76-1.772 1.032 0 1.676.855 1.676 1.785m-3.082-.17h2.73c-.075-.828-.66-1.29-1.324-1.29-.776 0-1.34.536-1.406 1.29"/><path fill="none" stroke="#231F20" stroke-width=".3" stroke-linecap="round" stroke-linejoin="round" stroke-miterlimit="10" d="M106.372 24.553c0 .054-.007.108-.007.162h-3.075c.08.768.665 1.27 1.438 1.27.558 0 .98-.258 1.176-.618l.298.177c-.278.462-.81.767-1.48.767-1.045 0-1.786-.745-1.786-1.77 0-.998.72-1.772 1.76-1.772 1.032 0 1.676.855 1.676 1.785zm-3.082-.17h2.73c-.075-.828-.66-1.29-1.324-1.29-.776 0-1.34.536-1.406 1.29z"/><path fill="#231F20" d="M110.44 24.553c0 .054-.007.108-.007.162h-3.075c.08.768.665 1.27 1.438 1.27.558 0 .98-.258 1.176-.618l.298.177c-.278.462-.81.767-1.48.767-1.045 0-1.786-.745-1.786-1.77 0-.998.72-1.772 1.76-1.772 1.03 0 1.676.855 1.676 1.785m-3.082-.17h2.73c-.075-.828-.66-1.29-1.324-1.29-.775 0-1.34.536-1.406 1.29"/><path fill="none" stroke="#231F20" stroke-width=".3" stroke-linecap="round" stroke-linejoin="round" stroke-miterlimit="10" d="M110.44 24.553c0 .054-.007.108-.007.162h-3.075c.08.768.665 1.27 1.438 1.27.558 0 .98-.258 1.176-.618l.298.177c-.278.462-.81.767-1.48.767-1.045 0-1.786-.745-1.786-1.77 0-.998.72-1.772 1.76-1.772 1.03 0 1.676.855 1.676 1.785zm-3.082-.17h2.73c-.075-.828-.66-1.29-1.324-1.29-.775 0-1.34.536-1.406 1.29z"/><path fill="#231F20" d="M112.777 22.794v.326c-.584 0-1.134.36-1.134 1.23v1.887h-.34V22.84h.34v.667c.23-.536.672-.713 1.134-.713"/><path fill="none" stroke="#231F20" stroke-width=".3" stroke-linecap="round" stroke-linejoin="round" stroke-miterlimit="10" d="M112.777 22.794v.326c-.584 0-1.134.36-1.134 1.23v1.887h-.34V22.84h.34v.667c.23-.536.672-.713 1.134-.713z"/><path fill="#231F20" d="M118.618 24.553c0 .054-.007.108-.007.162h-3.074c.08.768.665 1.27 1.438 1.27.558 0 .98-.258 1.176-.618l.298.177c-.278.462-.81.767-1.48.767-1.045 0-1.786-.745-1.786-1.77 0-.998.72-1.772 1.76-1.772 1.032 0 1.676.855 1.676 1.785m-3.082-.17h2.73c-.075-.828-.66-1.29-1.324-1.29-.775 0-1.34.536-1.406 1.29"/><path fill="none" stroke="#231F20" stroke-width=".3" stroke-linecap="round" stroke-linejoin="round" stroke-miterlimit="10" d="M118.618 24.553c0 .054-.007.108-.007.162h-3.074c.08.768.665 1.27 1.438 1.27.558 0 .98-.258 1.176-.618l.298.177c-.278.462-.81.767-1.48.767-1.045 0-1.786-.745-1.786-1.77 0-.998.72-1.772 1.76-1.772 1.032 0 1.676.855 1.676 1.785zm-3.082-.17h2.73c-.075-.828-.66-1.29-1.324-1.29-.775 0-1.34.536-1.406 1.29z"/><path fill="#231F20" d="M124.696 21.484v4.753h-.34v-.788c-.277.522-.8.86-1.46.86-.97 0-1.758-.766-1.758-1.77s.787-1.773 1.76-1.773c.657 0 1.18.34 1.46.862v-2.147h.338zm-.34 3.056c0-.81-.63-1.446-1.438-1.446-.81 0-1.44.638-1.44 1.446 0 .808.632 1.446 1.44 1.446.807 0 1.44-.64 1.44-1.446"/><path fill="none" stroke="#231F20" stroke-width=".3" stroke-linecap="round" stroke-linejoin="round" stroke-miterlimit="10" d="M124.696 21.484v4.753h-.34v-.788c-.277.522-.8.86-1.46.86-.97 0-1.758-.766-1.758-1.77s.787-1.773 1.76-1.773c.657 0 1.18.34 1.46.862v-2.147h.338zm-.34 3.056c0-.81-.63-1.446-1.438-1.446-.81 0-1.44.638-1.44 1.446 0 .808.632 1.446 1.44 1.446.807 0 1.44-.64 1.44-1.446z"/><path fill="#231F20" d="M129.016 24.553c0 .054-.007.108-.007.162h-3.076c.08.768.665 1.27 1.438 1.27.558 0 .98-.258 1.176-.618l.298.177c-.278.462-.81.767-1.48.767-1.045 0-1.786-.745-1.786-1.77 0-.998.72-1.772 1.76-1.772 1.033 0 1.676.855 1.676 1.785m-3.082-.17h2.73c-.075-.828-.66-1.29-1.324-1.29-.775 0-1.34.536-1.406 1.29"/><path fill="none" stroke="#231F20" stroke-width=".3" stroke-linecap="round" stroke-linejoin="round" stroke-miterlimit="10" d="M129.016 24.553c0 .054-.007.108-.007.162h-3.076c.08.768.665 1.27 1.438 1.27.558 0 .98-.258 1.176-.618l.298.177c-.278.462-.81.767-1.48.767-1.045 0-1.786-.745-1.786-1.77 0-.998.72-1.772 1.76-1.772 1.033 0 1.676.855 1.676 1.785zm-3.082-.17h2.73c-.075-.828-.66-1.29-1.324-1.29-.775 0-1.34.536-1.406 1.29z"/><path fill="#231F20" d="M134.05 25.347c0 .557-.49.964-1.217.964-.68 0-1.127-.317-1.29-.752l.292-.17c.122.366.488.598.998.598.476 0 .876-.21.876-.64 0-.922-2.06-.393-2.06-1.615 0-.535.463-.963 1.155-.963.55 0 .97.265 1.154.68l-.286.162c-.143-.354-.495-.517-.87-.517-.44 0-.813.23-.813.638.002.91 2.06.375 2.06 1.617"/><path fill="none" stroke="#231F20" stroke-width=".3" stroke-linecap="round" stroke-linejoin="round" stroke-miterlimit="10" d="M134.05 25.347c0 .557-.49.964-1.217.964-.68 0-1.127-.317-1.29-.752l.292-.17c.122.366.488.598.998.598.476 0 .876-.21.876-.64 0-.922-2.06-.393-2.06-1.615 0-.535.463-.963 1.155-.963.55 0 .97.265 1.154.68l-.286.162c-.143-.354-.495-.517-.87-.517-.44 0-.813.23-.813.638.002.91 2.06.375 2.06 1.617z"/><path fill="#231F20" d="M137.723 22.84v3.397h-.338v-.646c-.26.504-.693.72-1.217.72-.808 0-1.317-.535-1.317-1.356v-2.112h.348v2.112c0 .625.36 1.033.998 1.033.666 0 1.19-.436 1.19-1.353V22.84h.337z"/><path fill="none" stroke="#231F20" stroke-width=".3" stroke-linecap="round" stroke-linejoin="round" stroke-miterlimit="10" d="M137.723 22.84v3.397h-.338v-.646c-.26.504-.693.72-1.217.72-.808 0-1.317-.535-1.317-1.356v-2.112h.348v2.112c0 .625.36 1.033.998 1.033.666 0 1.19-.436 1.19-1.353V22.84h.337z"/><path fill="#231F20" d="M142.172 22.84v3.397h-.346v-.768c-.285.51-.81.84-1.46.84-.964 0-1.76-.766-1.76-1.77s.796-1.773 1.76-1.773c.65 0 1.175.333 1.46.842v-.77h.346zm-.346 1.7c0-.81-.625-1.446-1.432-1.446-.81 0-1.44.638-1.44 1.446 0 .808.632 1.446 1.44 1.446.807 0 1.432-.64 1.432-1.446"/><path fill="none" stroke="#231F20" stroke-width=".3" stroke-linecap="round" stroke-linejoin="round" stroke-miterlimit="10" d="M142.172 22.84v3.397h-.346v-.768c-.285.51-.81.84-1.46.84-.964 0-1.76-.766-1.76-1.77s.796-1.773 1.76-1.773c.65 0 1.175.333 1.46.842v-.77h.346zm-.346 1.7c0-.81-.625-1.446-1.432-1.446-.81 0-1.44.638-1.44 1.446 0 .808.632 1.446 1.44 1.446.807 0 1.432-.64 1.432-1.446z"/><path fill="#231F20" d="M145.576 25.347c0 .557-.49.964-1.217.964-.68 0-1.128-.317-1.29-.752l.29-.17c.124.366.49.598 1 .598.476 0 .876-.21.876-.64 0-.922-2.06-.393-2.06-1.615 0-.535.464-.963 1.155-.963.552 0 .972.265 1.155.68l-.285.162c-.143-.354-.494-.517-.87-.517-.44 0-.813.23-.813.638 0 .91 2.06.375 2.06 1.617"/><path fill="none" stroke="#231F20" stroke-width=".3" stroke-linecap="round" stroke-linejoin="round" stroke-miterlimit="10" d="M145.576 25.347c0 .557-.49.964-1.217.964-.68 0-1.128-.317-1.29-.752l.29-.17c.124.366.49.598 1 .598.476 0 .876-.21.876-.64 0-.922-2.06-.393-2.06-1.615 0-.535.464-.963 1.155-.963.552 0 .972.265 1.155.68l-.285.162c-.143-.354-.494-.517-.87-.517-.44 0-.813.23-.813.638 0 .91 2.06.375 2.06 1.617z"/><path fill="#231F20" d="M148.117 24.54c0-1.005.76-1.772 1.785-1.772.666 0 1.234.34 1.48.87l-.28.162c-.194-.428-.657-.706-1.2-.706-.822 0-1.44.638-1.44 1.446 0 .808.618 1.446 1.44 1.446.55 0 .998-.285 1.223-.706l.285.17c-.273.522-.842.86-1.508.86-1.025 0-1.785-.766-1.785-1.77"/><path fill="none" stroke="#231F20" stroke-width=".3" stroke-linecap="round" stroke-linejoin="round" stroke-miterlimit="10" d="M148.117 24.54c0-1.005.76-1.772 1.785-1.772.666 0 1.234.34 1.48.87l-.28.162c-.194-.428-.657-.706-1.2-.706-.822 0-1.44.638-1.44 1.446 0 .808.618 1.446 1.44 1.446.55 0 .998-.285 1.223-.706l.285.17c-.273.522-.842.86-1.508.86-1.025 0-1.785-.766-1.785-1.77z"/><path fill="#231F20" d="M151.994 24.54c0-1.005.795-1.772 1.787-1.772.985 0 1.778.768 1.778 1.772s-.793 1.77-1.777 1.77c-.99 0-1.786-.766-1.786-1.77m3.22 0c0-.81-.626-1.446-1.433-1.446-.808 0-1.438.638-1.438 1.446 0 .808.63 1.446 1.44 1.446.806 0 1.43-.64 1.43-1.446"/><path fill="none" stroke="#231F20" stroke-width=".3" stroke-linecap="round" stroke-linejoin="round" stroke-miterlimit="10" d="M151.994 24.54c0-1.005.795-1.772 1.787-1.772.985 0 1.778.768 1.778 1.772s-.793 1.77-1.777 1.77c-.99 0-1.786-.766-1.786-1.77zm3.22 0c0-.81-.626-1.446-1.433-1.446-.808 0-1.438.638-1.438 1.446 0 .808.63 1.446 1.44 1.446.806 0 1.43-.64 1.43-1.446z"/><path fill="#231F20" d="M161.305 24.084v2.152h-.34v-2.152c0-.646-.373-.99-.902-.99-.57 0-1.02.38-1.02 1.248v1.895h-.338v-2.152c0-.646-.348-.99-.87-.99-.556 0-1.052.38-1.052 1.248v1.895h-.34v-3.396h.34v.584c.25-.468.658-.658 1.094-.658.494 0 .88.244 1.06.692.243-.476.68-.692 1.132-.692.72 0 1.235.468 1.235 1.316"/><path fill="none" stroke="#231F20" stroke-width=".3" stroke-linecap="round" stroke-linejoin="round" stroke-miterlimit="10" d="M161.305 24.084v2.152h-.34v-2.152c0-.646-.373-.99-.902-.99-.57 0-1.02.38-1.02 1.248v1.895h-.338v-2.152c0-.646-.348-.99-.87-.99-.556 0-1.052.38-1.052 1.248v1.895h-.34v-3.396h.34v.584c.25-.468.658-.658 1.094-.658.494 0 .88.244 1.06.692.243-.476.68-.692 1.132-.692.72 0 1.235.468 1.235 1.316z"/><path fill="#231F20" d="M165.89 24.54c0 1.005-.788 1.77-1.76 1.77-.657 0-1.18-.337-1.458-.86v2.146h-.34v-4.754h.34v.788c.277-.522.8-.862 1.46-.862.97 0 1.76.767 1.76 1.772m-.34 0c0-.81-.632-1.446-1.44-1.446s-1.44.638-1.44 1.446c0 .808.632 1.446 1.44 1.446s1.44-.64 1.44-1.446"/><path fill="none" stroke="#231F20" stroke-width=".3" stroke-linecap="round" stroke-linejoin="round" stroke-miterlimit="10" d="M165.89 24.54c0 1.005-.788 1.77-1.76 1.77-.657 0-1.18-.337-1.458-.86v2.146h-.34v-4.754h.34v.788c.277-.522.8-.862 1.46-.862.97 0 1.76.767 1.76 1.772zm-.34 0c0-.81-.63-1.446-1.438-1.446s-1.44.638-1.44 1.446c0 .808.632 1.446 1.44 1.446s1.44-.64 1.44-1.446z"/><path fill="#231F20" d="M170.115 22.84v3.397h-.346v-.768c-.286.51-.81.84-1.462.84-.963 0-1.758-.766-1.758-1.77s.795-1.773 1.758-1.773c.652 0 1.176.333 1.46.842v-.77h.347zm-.345 1.7c0-.81-.625-1.446-1.434-1.446s-1.44.638-1.44 1.446c0 .808.632 1.446 1.44 1.446s1.434-.64 1.434-1.446"/><path fill="none" stroke="#231F20" stroke-width=".3" stroke-linecap="round" stroke-linejoin="round" stroke-miterlimit="10" d="M170.115 22.84v3.397h-.346v-.768c-.286.51-.81.84-1.462.84-.963 0-1.758-.766-1.758-1.77s.795-1.773 1.758-1.773c.652 0 1.176.333 1.46.842v-.77h.347zm-.345 1.7c0-.81-.625-1.446-1.434-1.446s-1.44.638-1.44 1.446c0 .808.632 1.446 1.44 1.446s1.434-.64 1.434-1.446z"/><path fill="#231F20" d="M174.102 24.125v2.11h-.346v-2.11c0-.625-.36-1.032-.998-1.032-.666 0-1.19.435-1.19 1.35v1.794h-.34V22.84h.34v.647c.26-.503.694-.72 1.218-.72.806 0 1.316.536 1.316 1.358"/><path fill="none" stroke="#231F20" stroke-width=".3" stroke-linecap="round" stroke-linejoin="round" stroke-miterlimit="10" d="M174.102 24.125v2.11h-.346v-2.11c0-.625-.36-1.032-.998-1.032-.666 0-1.19.435-1.19 1.35v1.794h-.34V22.84h.34v.647c.26-.503.694-.72 1.218-.72.806 0 1.316.536 1.316 1.358z"/><path fill="#231F20" d="M178.002 24.125v2.11h-.348v-2.11c0-.625-.36-1.032-.998-1.032-.666 0-1.188.435-1.188 1.35v1.794h-.34v-4.753h.34v2.003c.258-.503.69-.72 1.215-.72.81 0 1.32.536 1.32 1.358"/><path fill="none" stroke="#231F20" stroke-width=".3" stroke-linecap="round" stroke-linejoin="round" stroke-miterlimit="10" d="M178.002 24.125v2.11h-.348v-2.11c0-.625-.36-1.032-.998-1.032-.666 0-1.188.435-1.188 1.35v1.794h-.34v-4.753h.34v2.003c.258-.503.69-.72 1.215-.72.81 0 1.32.536 1.32 1.358z"/><path fill="#231F20" d="M178.926 21.75c0-.144.12-.266.27-.266.15 0 .272.122.272.265 0 .148-.123.27-.27.27-.15 0-.272-.122-.272-.27m.1 1.09h.34v3.397h-.34V22.84z"/><path fill="none" stroke="#231F20" stroke-width=".3" stroke-linecap="round" stroke-linejoin="round" stroke-miterlimit="10" d="M178.926 21.75c0-.144.12-.266.27-.266.15 0 .272.122.272.265 0 .148-.123.27-.27.27-.15 0-.272-.122-.272-.27zm.1 1.09h.34v3.397h-.34V22.84z"/><path fill="#231F20" d="M183.814 22.84v3.397h-.346v-.768c-.285.51-.81.84-1.46.84-.964 0-1.76-.766-1.76-1.77s.796-1.773 1.76-1.773c.65 0 1.175.333 1.46.842v-.77h.346zm-.345 1.7c0-.81-.626-1.446-1.435-1.446s-1.44.638-1.44 1.446c0 .808.632 1.446 1.44 1.446s1.434-.64 1.434-1.446"/><path fill="none" stroke="#231F20" stroke-width=".3" stroke-linecap="round" stroke-linejoin="round" stroke-miterlimit="10" d="M183.814 22.84v3.397h-.346v-.768c-.285.51-.81.84-1.46.84-.964 0-1.76-.766-1.76-1.77s.796-1.773 1.76-1.773c.65 0 1.175.333 1.46.842v-.77h.346zm-.345 1.7c0-.81-.626-1.446-1.435-1.446s-1.44.638-1.44 1.446c0 .808.632 1.446 1.44 1.446s1.434-.64 1.434-1.446z"/><path fill="#231F20" d="M187.22 25.347c0 .557-.49.964-1.218.964-.678 0-1.127-.317-1.29-.752l.292-.17c.123.366.49.598.998.598.477 0 .877-.21.877-.64 0-.922-2.06-.393-2.06-1.615 0-.535.463-.963 1.154-.963.55 0 .97.265 1.154.68l-.285.162c-.143-.354-.494-.517-.87-.517-.44 0-.813.23-.813.638 0 .91 2.06.375 2.06 1.617"/><path fill="none" stroke="#231F20" stroke-width=".3" stroke-linecap="round" stroke-linejoin="round" stroke-miterlimit="10" d="M187.22 25.347c0 .557-.49.964-1.218.964-.678 0-1.127-.317-1.29-.752l.292-.17c.123.366.49.598.998.598.477 0 .877-.21.877-.64 0-.922-2.06-.393-2.06-1.615 0-.535.463-.963 1.154-.963.55 0 .97.265 1.154.68l-.285.162c-.143-.354-.494-.517-.87-.517-.44 0-.813.23-.813.638 0 .91 2.06.375 2.06 1.617z"/><path fill="#231F20" d="M193.322 22.84v3.397h-.346v-.768c-.285.51-.81.84-1.46.84-.964 0-1.76-.766-1.76-1.77s.796-1.773 1.76-1.773c.65 0 1.175.333 1.46.842v-.77h.346zm-.345 1.7c0-.81-.625-1.446-1.432-1.446-.81 0-1.44.638-1.44 1.446 0 .808.632 1.446 1.44 1.446.807 0 1.432-.64 1.432-1.446"/><path fill="none" stroke="#231F20" stroke-width=".3" stroke-linecap="round" stroke-linejoin="round" stroke-miterlimit="10" d="M193.322 22.84v3.397h-.346v-.768c-.285.51-.81.84-1.46.84-.964 0-1.76-.766-1.76-1.77s.796-1.773 1.76-1.773c.65 0 1.175.333 1.46.842v-.77h.346zm-.345 1.7c0-.81-.625-1.446-1.432-1.446-.81 0-1.44.638-1.44 1.446 0 .808.632 1.446 1.44 1.446.807 0 1.432-.64 1.432-1.446z"/><path fill="#231F20" d="M196.863 26.237h-.348v-3.063h-1.486v3.063h-.347v-3.063h-.583v-.333h.584v-.182c0-.836.467-1.25 1.357-1.25.226 0 .435.027.66.075v.313c-.226-.04-.435-.062-.66-.062-.692 0-1.01.265-1.01.924v.183h1.833v3.397z"/><path fill="none" stroke="#231F20" stroke-width=".3" stroke-linecap="round" stroke-linejoin="round" stroke-miterlimit="10" d="M196.863 26.237h-.348v-3.063h-1.486v3.063h-.347v-3.063h-.583v-.333h.584v-.182c0-.836.467-1.25 1.357-1.25.226 0 .435.027.66.075v.313c-.226-.04-.435-.062-.66-.062-.692 0-1.01.265-1.01.924v.183h1.833v3.397z"/><path fill="#231F20" d="M197.97 21.28h.34v4.957h-.34z"/><path fill="none" stroke="#231F20" stroke-width=".3" stroke-linecap="round" stroke-linejoin="round" stroke-miterlimit="10" d="M197.97 21.28h.34v4.957h-.34z"/><path fill="#231F20" d="M199.322 21.75c0-.144.12-.266.27-.266.15 0 .272.122.272.265 0 .148-.123.27-.27.27-.15 0-.272-.122-.272-.27m.102 1.09h.34v3.397h-.34V22.84z"/><path fill="none" stroke="#231F20" stroke-width=".3" stroke-linecap="round" stroke-linejoin="round" stroke-miterlimit="10" d="M199.322 21.75c0-.144.12-.266.27-.266.15 0 .272.122.272.265 0 .148-.123.27-.27.27-.15 0-.272-.122-.272-.27zm.102 1.09h.34v3.397h-.34V22.84z"/><path fill="#231F20" d="M204.21 22.84v3.397h-.345v-.768c-.285.51-.81.84-1.46.84-.964 0-1.76-.766-1.76-1.77s.796-1.773 1.76-1.773c.65 0 1.175.333 1.46.842v-.77h.346zm-.345 1.7c0-.81-.625-1.446-1.434-1.446s-1.438.638-1.438 1.446c0 .808.63 1.446 1.44 1.446s1.433-.64 1.433-1.446"/><path fill="none" stroke="#231F20" stroke-width=".3" stroke-linecap="round" stroke-linejoin="round" stroke-miterlimit="10" d="M204.21 22.84v3.397h-.345v-.768c-.285.51-.81.84-1.46.84-.964 0-1.76-.766-1.76-1.77s.796-1.773 1.76-1.773c.65 0 1.175.333 1.46.842v-.77h.346zm-.345 1.7c0-.81-.625-1.446-1.434-1.446s-1.438.638-1.438 1.446c0 .808.63 1.446 1.44 1.446s1.433-.64 1.433-1.446z"/><path fill="#231F20" d="M208.66 21.484v4.753h-.34v-.788c-.277.522-.8.86-1.46.86-.97 0-1.76-.766-1.76-1.77s.79-1.773 1.76-1.773c.66 0 1.183.34 1.46.862v-2.147h.34zm-.34 3.056c0-.81-.63-1.446-1.44-1.446s-1.438.638-1.438 1.446c0 .808.63 1.446 1.44 1.446s1.438-.64 1.438-1.446"/><path fill="none" stroke="#231F20" stroke-width=".3" stroke-linecap="round" stroke-linejoin="round" stroke-miterlimit="10" d="M208.66 21.484v4.753h-.34v-.788c-.277.522-.8.86-1.46.86-.97 0-1.76-.766-1.76-1.77s.79-1.773 1.76-1.773c.66 0 1.183.34 1.46.862v-2.147h.34zm-.34 3.056c0-.81-.63-1.446-1.44-1.446s-1.438.638-1.438 1.446c0 .808.63 1.446 1.44 1.446s1.438-.64 1.438-1.446z"/><path fill="#231F20" d="M213.107 22.84v3.397h-.346v-.768c-.284.51-.808.84-1.458.84-.965 0-1.76-.766-1.76-1.77s.795-1.773 1.76-1.773c.65 0 1.174.333 1.46.842v-.77h.345zm-.345 1.7c0-.81-.625-1.446-1.432-1.446-.81 0-1.44.638-1.44 1.446 0 .808.632 1.446 1.44 1.446.807 0 1.432-.64 1.432-1.446"/><path fill="none" stroke="#231F20" stroke-width=".3" stroke-linecap="round" stroke-linejoin="round" stroke-miterlimit="10" d="M213.107 22.84v3.397h-.346v-.768c-.284.51-.808.84-1.458.84-.965 0-1.76-.766-1.76-1.77s.795-1.773 1.76-1.773c.65 0 1.174.333 1.46.842v-.77h.345zm-.345 1.7c0-.81-.625-1.446-1.432-1.446-.81 0-1.44.638-1.44 1.446 0 .808.632 1.446 1.44 1.446.807 0 1.432-.64 1.432-1.446z"/><path fill="#231F20" d="M216.512 25.347c0 .557-.488.964-1.215.964-.68 0-1.127-.317-1.29-.752l.292-.17c.12.366.487.598.997.598.475 0 .875-.21.875-.64 0-.922-2.057-.393-2.057-1.615 0-.535.46-.963 1.154-.963.548 0 .97.265 1.153.68l-.285.162c-.143-.354-.496-.517-.87-.517-.442 0-.813.23-.813.638 0 .91 2.057.375 2.057 1.617"/><path fill="none" stroke="#231F20" stroke-width=".3" stroke-linecap="round" stroke-linejoin="round" stroke-miterlimit="10" d="M216.512 25.347c0 .557-.488.964-1.215.964-.68 0-1.127-.317-1.29-.752l.292-.17c.12.366.487.598.997.598.475 0 .875-.21.875-.64 0-.922-2.057-.393-2.057-1.615 0-.535.46-.963 1.154-.963.548 0 .97.265 1.153.68l-.285.162c-.143-.354-.496-.517-.87-.517-.442 0-.813.23-.813.638 0 .91 2.057.375 2.057 1.617z"/><path fill="#231F20" d="M219.053 24.54c0-1.005.795-1.772 1.787-1.772.984 0 1.777.768 1.777 1.772s-.793 1.77-1.777 1.77c-.992 0-1.787-.766-1.787-1.77m3.218 0c0-.81-.624-1.446-1.43-1.446-.81 0-1.44.638-1.44 1.446 0 .808.63 1.446 1.44 1.446.806 0 1.43-.64 1.43-1.446"/><path fill="none" stroke="#231F20" stroke-width=".3" stroke-linecap="round" stroke-linejoin="round" stroke-miterlimit="10" d="M219.053 24.54c0-1.005.795-1.772 1.787-1.772.984 0 1.777.768 1.777 1.772s-.793 1.77-1.777 1.77c-.992 0-1.787-.766-1.787-1.77zm3.218 0c0-.81-.624-1.446-1.43-1.446-.81 0-1.44.638-1.44 1.446 0 .808.63 1.446 1.44 1.446.806 0 1.43-.64 1.43-1.446z"/><path fill="#231F20" d="M226.285 22.84v3.397h-.338v-.646c-.26.504-.693.72-1.217.72-.81 0-1.316-.535-1.316-1.356v-2.112h.346v2.112c0 .625.36 1.033.998 1.033.666 0 1.19-.436 1.19-1.353V22.84h.337z"/><path fill="none" stroke="#231F20" stroke-width=".3" stroke-linecap="round" stroke-linejoin="round" stroke-miterlimit="10" d="M226.285 22.84v3.397h-.338v-.646c-.26.504-.693.72-1.217.72-.81 0-1.316-.535-1.316-1.356v-2.112h.346v2.112c0 .625.36 1.033.998 1.033.666 0 1.19-.436 1.19-1.353V22.84h.337z"/><path fill="#231F20" d="M232.615 21.484v4.753h-.338v-.788c-.28.522-.803.86-1.46.86-.972 0-1.76-.766-1.76-1.77s.788-1.773 1.76-1.773c.657 0 1.18.34 1.46.862v-2.147h.338zm-.338 3.056c0-.81-.633-1.446-1.44-1.446-.808 0-1.438.638-1.438 1.446 0 .808.63 1.446 1.438 1.446.807 0 1.44-.64 1.44-1.446"/><path fill="none" stroke="#231F20" stroke-width=".3" stroke-linecap="round" stroke-linejoin="round" stroke-miterlimit="10" d="M232.615 21.484v4.753h-.338v-.788c-.28.522-.803.86-1.46.86-.972 0-1.76-.766-1.76-1.77s.788-1.773 1.76-1.773c.657 0 1.18.34 1.46.862v-2.147h.338zm-.338 3.056c0-.81-.633-1.446-1.44-1.446-.808 0-1.438.638-1.438 1.446 0 .808.63 1.446 1.438 1.446.807 0 1.44-.64 1.44-1.446z"/><path fill="#231F20" d="M236.936 24.553c0 .054-.008.108-.008.162h-3.074c.08.768.664 1.27 1.44 1.27.556 0 .976-.258 1.173-.618l.3.177c-.28.462-.81.767-1.48.767-1.046 0-1.786-.745-1.786-1.77 0-.998.72-1.772 1.76-1.772 1.03 0 1.676.855 1.676 1.785m-3.082-.17h2.73c-.075-.828-.66-1.29-1.325-1.29-.776 0-1.34.536-1.406 1.29"/><path fill="none" stroke="#231F20" stroke-width=".3" stroke-linecap="round" stroke-linejoin="round" stroke-miterlimit="10" d="M236.936 24.553c0 .054-.008.108-.008.162h-3.074c.08.768.664 1.27 1.44 1.27.556 0 .976-.258 1.173-.618l.3.177c-.28.462-.81.767-1.48.767-1.046 0-1.786-.745-1.786-1.77 0-.998.72-1.772 1.76-1.772 1.03 0 1.676.855 1.676 1.785zm-3.082-.17h2.73c-.075-.828-.66-1.29-1.325-1.29-.776 0-1.34.536-1.406 1.29z"/><path fill="#231F20" d="M241.97 25.347c0 .557-.49.964-1.216.964-.68 0-1.127-.317-1.29-.752l.292-.17c.12.366.488.598.998.598.475 0 .875-.21.875-.64 0-.922-2.058-.393-2.058-1.615 0-.535.46-.963 1.154-.963.55 0 .97.265 1.154.68l-.285.162c-.143-.354-.496-.517-.87-.517-.44 0-.813.23-.813.638 0 .91 2.057.375 2.057 1.617"/><path fill="none" stroke="#231F20" stroke-width=".3" stroke-linecap="round" stroke-linejoin="round" stroke-miterlimit="10" d="M241.97 25.347c0 .557-.49.964-1.216.964-.68 0-1.127-.317-1.29-.752l.292-.17c.12.366.488.598.998.598.475 0 .875-.21.875-.64 0-.922-2.058-.393-2.058-1.615 0-.535.46-.963 1.154-.963.55 0 .97.265 1.154.68l-.285.162c-.143-.354-.496-.517-.87-.517-.44 0-.813.23-.813.638 0 .91 2.057.375 2.057 1.617z"/><path fill="#231F20" d="M246.064 24.553c0 .054-.008.108-.008.162h-3.074c.08.768.664 1.27 1.44 1.27.556 0 .976-.258 1.173-.618l.3.177c-.28.462-.81.767-1.48.767-1.046 0-1.786-.745-1.786-1.77 0-.998.718-1.772 1.757-1.772 1.033 0 1.677.855 1.677 1.785m-3.082-.17h2.73c-.075-.828-.66-1.29-1.325-1.29-.774 0-1.338.536-1.405 1.29"/><path fill="none" stroke="#231F20" stroke-width=".3" stroke-linecap="round" stroke-linejoin="round" stroke-miterlimit="10" d="M246.064 24.553c0 .054-.008.108-.008.162h-3.074c.08.768.664 1.27 1.44 1.27.556 0 .976-.258 1.173-.618l.3.177c-.28.462-.81.767-1.48.767-1.046 0-1.786-.745-1.786-1.77 0-.998.718-1.772 1.757-1.772 1.033 0 1.677.855 1.677 1.785zm-3.082-.17h2.73c-.075-.828-.66-1.29-1.325-1.29-.774 0-1.338.536-1.405 1.29z"/><path fill="#231F20" d="M249.71 22.84v3.397h-.337v-.646c-.26.504-.693.72-1.217.72-.81 0-1.316-.535-1.316-1.356v-2.112h.346v2.112c0 .625.36 1.033.998 1.033.666 0 1.19-.436 1.19-1.353V22.84h.337z"/><path fill="none" stroke="#231F20" stroke-width=".3" stroke-linecap="round" stroke-linejoin="round" stroke-miterlimit="10" d="M249.71 22.84v3.397h-.337v-.646c-.26.504-.693.72-1.217.72-.81 0-1.316-.535-1.316-1.356v-2.112h.346v2.112c0 .625.36 1.033.998 1.033.666 0 1.19-.436 1.19-1.353V22.84h.337z"/><path fill="#231F20" d="M253.115 25.347c0 .557-.49.964-1.217.964-.678 0-1.127-.317-1.29-.752l.292-.17c.123.366.49.598.998.598.477 0 .877-.21.877-.64 0-.922-2.06-.393-2.06-1.615 0-.535.464-.963 1.155-.963.55 0 .97.265 1.154.68l-.285.162c-.144-.354-.495-.517-.87-.517-.44 0-.814.23-.814.638 0 .91 2.06.375 2.06 1.617"/><path fill="none" stroke="#231F20" stroke-width=".3" stroke-linecap="round" stroke-linejoin="round" stroke-miterlimit="10" d="M253.115 25.347c0 .557-.49.964-1.217.964-.678 0-1.127-.317-1.29-.752l.292-.17c.123.366.49.598.998.598.477 0 .877-.21.877-.64 0-.922-2.06-.393-2.06-1.615 0-.535.464-.963 1.155-.963.55 0 .97.265 1.154.68l-.285.162c-.144-.354-.495-.517-.87-.517-.44 0-.814.23-.814.638 0 .91 2.06.375 2.06 1.617z"/><path fill="#231F20" d="M133.35 30.945v.326c-.584 0-1.134.36-1.134 1.23v1.888h-.34v-3.396h.34v.666c.23-.536.672-.713 1.134-.713"/><path fill="none" stroke="#231F20" stroke-width=".3" stroke-linecap="round" stroke-linejoin="round" stroke-miterlimit="10" d="M133.35 30.945v.326c-.584 0-1.134.36-1.134 1.23v1.888h-.34v-3.396h.34v.666c.23-.536.672-.713 1.134-.713z"/><path fill="#231F20" d="M137.31 32.704c0 .054-.007.108-.007.162h-3.076c.08.768.665 1.27 1.44 1.27.556 0 .978-.258 1.175-.618l.297.177c-.278.462-.81.767-1.48.767-1.046 0-1.788-.746-1.788-1.77 0-1 .72-1.773 1.76-1.773 1.034-.003 1.677.853 1.677 1.784m-3.083-.17h2.728c-.074-.828-.658-1.29-1.322-1.29-.775 0-1.34.536-1.406 1.29"/><path fill="none" stroke="#231F20" stroke-width=".3" stroke-linecap="round" stroke-linejoin="round" stroke-miterlimit="10" d="M137.31 32.704c0 .054-.007.108-.007.162h-3.076c.08.768.665 1.27 1.44 1.27.556 0 .978-.258 1.175-.618l.297.177c-.278.462-.81.767-1.48.767-1.046 0-1.788-.746-1.788-1.77 0-1 .72-1.773 1.76-1.773 1.034-.003 1.677.853 1.677 1.784zm-3.083-.17h2.728c-.074-.828-.658-1.29-1.322-1.29-.775 0-1.34.536-1.406 1.29z"/><path fill="#231F20" d="M140.46 33.498c0 .557-.487.964-1.214.964-.68 0-1.127-.318-1.29-.753l.292-.17c.12.365.488.597.998.597.475 0 .875-.21.875-.64 0-.922-2.056-.393-2.056-1.615 0-.536.46-.964 1.154-.964.55 0 .97.265 1.154.68l-.285.162c-.143-.353-.496-.516-.87-.516-.44 0-.813.23-.813.638 0 .91 2.057.373 2.057 1.616"/><path fill="none" stroke="#231F20" stroke-width=".3" stroke-linecap="round" stroke-linejoin="round" stroke-miterlimit="10" d="M140.46 33.498c0 .557-.487.964-1.214.964-.68 0-1.127-.318-1.29-.753l.292-.17c.12.365.488.597.998.597.475 0 .875-.21.875-.64 0-.922-2.056-.393-2.056-1.615 0-.536.46-.964 1.154-.964.55 0 .97.265 1.154.68l-.285.162c-.143-.353-.496-.516-.87-.516-.44 0-.813.23-.813.638 0 .91 2.057.373 2.057 1.616z"/><path fill="#231F20" d="M144.91 32.69c0 1.005-.79 1.77-1.76 1.77-.658 0-1.182-.338-1.46-.86v2.145h-.34V30.99h.34v.79c.278-.523.802-.863 1.46-.863.97 0 1.76.768 1.76 1.773m-.34 0c0-.81-.63-1.446-1.44-1.446s-1.438.638-1.438 1.446c0 .808.63 1.446 1.44 1.446s1.438-.638 1.438-1.446"/><path fill="none" stroke="#231F20" stroke-width=".3" stroke-linecap="round" stroke-linejoin="round" stroke-miterlimit="10" d="M144.91 32.69c0 1.005-.79 1.77-1.76 1.77-.658 0-1.182-.338-1.46-.86v2.145h-.34V30.99h.34v.79c.278-.523.802-.863 1.46-.863.97 0 1.76.768 1.76 1.773zm-.34 0c0-.81-.63-1.446-1.44-1.446s-1.438.638-1.438 1.446c0 .808.63 1.446 1.44 1.446s1.438-.638 1.438-1.446z"/><path fill="#231F20" d="M149.006 32.704c0 .054-.008.108-.008.162h-3.074c.08.768.664 1.27 1.44 1.27.556 0 .976-.258 1.173-.618l.3.177c-.28.462-.81.767-1.48.767-1.046 0-1.786-.746-1.786-1.77 0-1 .72-1.773 1.76-1.773 1.03-.003 1.676.853 1.676 1.784m-3.082-.17h2.73c-.075-.828-.66-1.29-1.325-1.29-.775 0-1.34.536-1.406 1.29"/><path fill="none" stroke="#231F20" stroke-width=".3" stroke-linecap="round" stroke-linejoin="round" stroke-miterlimit="10" d="M149.006 32.704c0 .054-.008.108-.008.162h-3.074c.08.768.664 1.27 1.44 1.27.556 0 .976-.258 1.173-.618l.3.177c-.28.462-.81.767-1.48.767-1.046 0-1.786-.746-1.786-1.77 0-1 .72-1.773 1.76-1.773 1.03-.003 1.676.853 1.676 1.784zm-3.082-.17h2.73c-.075-.828-.66-1.29-1.325-1.29-.775 0-1.34.536-1.406 1.29z"/><path fill="#231F20" d="M149.64 32.69c0-1.005.76-1.772 1.784-1.772.666 0 1.236.34 1.48.87l-.28.162c-.194-.428-.657-.706-1.2-.706-.822 0-1.44.638-1.44 1.446 0 .808.618 1.446 1.44 1.446.55 0 .998-.285 1.223-.706l.285.17c-.27.522-.842.86-1.508.86-1.026 0-1.785-.765-1.785-1.77"/><path fill="none" stroke="#231F20" stroke-width=".3" stroke-linecap="round" stroke-linejoin="round" stroke-miterlimit="10" d="M149.64 32.69c0-1.005.76-1.772 1.784-1.772.666 0 1.236.34 1.48.87l-.28.162c-.194-.428-.657-.706-1.2-.706-.822 0-1.44.638-1.44 1.446 0 .808.618 1.446 1.44 1.446.55 0 .998-.285 1.223-.706l.285.17c-.27.522-.842.86-1.508.86-1.026 0-1.785-.765-1.785-1.77z"/><path fill="#231F20" d="M154.473 31.325v2.207c0 .598.32.61 1.012.55v.307c-.89.134-1.357-.083-1.357-.857v-2.207h-.746v-.333h.746v-.85l.346-.1v.95h1.012v.332h-1.013z"/><path fill="none" stroke="#231F20" stroke-width=".3" stroke-linecap="round" stroke-linejoin="round" stroke-miterlimit="10" d="M154.473 31.325v2.207c0 .598.32.61 1.012.55v.307c-.89.134-1.357-.083-1.357-.857v-2.207h-.746v-.333h.746v-.85l.346-.1v.95h1.012v.332h-1.013z"/><path fill="#231F20" d="M156.268 29.9c0-.144.12-.266.27-.266.15 0 .272.122.272.265 0 .148-.123.27-.27.27-.15 0-.272-.122-.272-.27m.1 1.092h.34v3.396h-.34v-3.396z"/><path fill="none" stroke="#231F20" stroke-width=".3" stroke-linecap="round" stroke-linejoin="round" stroke-miterlimit="10" d="M156.268 29.9c0-.144.12-.266.27-.266.15 0 .272.122.272.265 0 .148-.123.27-.27.27-.15 0-.272-.122-.272-.27zm.1 1.092h.34v3.396h-.34v-3.396z"/><path fill="#231F20" d="M160.674 30.992l-1.432 3.396h-.416l-1.44-3.396h.368l1.277 3.042 1.284-3.042"/><path fill="none" stroke="#231F20" stroke-width=".3" stroke-linecap="round" stroke-linejoin="round" stroke-miterlimit="10" d="M160.674 30.992l-1.432 3.396h-.416l-1.44-3.396h.368l1.277 3.042 1.284-3.042z"/><path fill="#231F20" d="M161.13 32.69c0-1.005.796-1.772 1.786-1.772.984 0 1.78.768 1.78 1.772s-.796 1.77-1.78 1.77c-.99 0-1.785-.765-1.785-1.77m3.22 0c0-.81-.625-1.446-1.434-1.446s-1.44.638-1.44 1.446c0 .808.632 1.446 1.44 1.446s1.434-.638 1.434-1.446"/><path fill="none" stroke="#231F20" stroke-width=".3" stroke-linecap="round" stroke-linejoin="round" stroke-miterlimit="10" d="M161.13 32.69c0-1.005.796-1.772 1.786-1.772.984 0 1.78.768 1.78 1.772s-.796 1.77-1.78 1.77c-.99 0-1.785-.765-1.785-1.77zm3.22 0c0-.81-.625-1.446-1.434-1.446s-1.44.638-1.44 1.446c0 .808.632 1.446 1.44 1.446s1.434-.638 1.434-1.446z"/><path fill="#231F20" d="M167.867 33.498c0 .557-.488.964-1.215.964-.68 0-1.127-.318-1.29-.753l.292-.17c.12.365.488.597.998.597.475 0 .875-.21.875-.64 0-.922-2.057-.393-2.057-1.615 0-.536.46-.964 1.154-.964.55 0 .97.265 1.154.68l-.285.162c-.143-.353-.496-.516-.87-.516-.44 0-.813.23-.813.638 0 .91 2.057.373 2.057 1.616"/><path fill="none" stroke="#231F20" stroke-width=".3" stroke-linecap="round" stroke-linejoin="round" stroke-miterlimit="10" d="M167.867 33.498c0 .557-.488.964-1.215.964-.68 0-1.127-.318-1.29-.753l.292-.17c.12.365.488.597.998.597.475 0 .875-.21.875-.64 0-.922-2.057-.393-2.057-1.615 0-.536.46-.964 1.154-.964.55 0 .97.265 1.154.68l-.285.162c-.143-.353-.496-.516-.87-.516-.44 0-.813.23-.813.638 0 .91 2.057.373 2.057 1.616z"/><path fill="#231F20" d="M171.365 31.325v2.207c0 .598.318.61 1.012.55v.307c-.89.134-1.357-.083-1.357-.857v-2.207h-.748v-.333h.748v-.85l.346-.1v.95h1.012v.332h-1.013z"/><path fill="none" stroke="#231F20" stroke-width=".3" stroke-linecap="round" stroke-linejoin="round" stroke-miterlimit="10" d="M171.365 31.325v2.207c0 .598.318.61 1.012.55v.307c-.89.134-1.357-.083-1.357-.857v-2.207h-.748v-.333h.748v-.85l.346-.1v.95h1.012v.332h-1.013z"/><path fill="#231F20" d="M173.158 29.9c0-.144.123-.266.27-.266.15 0 .272.122.272.265 0 .148-.12.27-.27.27-.15 0-.272-.122-.272-.27m.102 1.092h.34v3.396h-.34v-3.396z"/><path fill="none" stroke="#231F20" stroke-width=".3" stroke-linecap="round" stroke-linejoin="round" stroke-miterlimit="10" d="M173.158 29.9c0-.144.123-.266.27-.266.15 0 .272.122.272.265 0 .148-.12.27-.27.27-.15 0-.272-.122-.272-.27zm.102 1.092h.34v3.396h-.34v-3.396z"/><path fill="#231F20" d="M175.44 31.325v2.207c0 .598.32.61 1.01.55v.307c-.888.134-1.356-.083-1.356-.857v-2.207h-.746v-.333h.746v-.85l.346-.1v.95h1.012v.332h-1.013z"/><path fill="none" stroke="#231F20" stroke-width=".3" stroke-linecap="round" stroke-linejoin="round" stroke-miterlimit="10" d="M175.44 31.325v2.207c0 .598.32.61 1.01.55v.307c-.888.134-1.356-.083-1.356-.857v-2.207h-.746v-.333h.746v-.85l.346-.1v.95h1.012v.332h-1.013z"/><path fill="#231F20" d="M180.12 30.992v3.396h-.34v-.646c-.26.503-.692.72-1.216.72-.81 0-1.316-.536-1.316-1.357v-2.112h.346v2.112c0 .625.36 1.033.998 1.033.666 0 1.19-.436 1.19-1.353v-1.793h.337z"/><path fill="none" stroke="#231F20" stroke-width=".3" stroke-linecap="round" stroke-linejoin="round" stroke-miterlimit="10" d="M180.12 30.992v3.396h-.34v-.646c-.26.503-.692.72-1.216.72-.81 0-1.316-.536-1.316-1.357v-2.112h.346v2.112c0 .625.36 1.033.998 1.033.666 0 1.19-.436 1.19-1.353v-1.793h.337z"/><path fill="#231F20" d="M181.234 29.43h.34v4.957h-.34z"/><path fill="none" stroke="#231F20" stroke-width=".3" stroke-linecap="round" stroke-linejoin="round" stroke-miterlimit="10" d="M181.234 29.43h.34v4.957h-.34z"/><path fill="#231F20" d="M186.02 30.992v3.396h-.345v-.768c-.285.51-.81.842-1.46.842-.964 0-1.76-.767-1.76-1.77s.796-1.773 1.76-1.773c.65 0 1.175.332 1.46.84v-.767h.346zm-.344 1.698c0-.81-.625-1.446-1.432-1.446-.81 0-1.44.638-1.44 1.446 0 .808.632 1.446 1.44 1.446.807 0 1.432-.638 1.432-1.446"/><path fill="none" stroke="#231F20" stroke-width=".3" stroke-linecap="round" stroke-linejoin="round" stroke-miterlimit="10" d="M186.02 30.992v3.396h-.345v-.768c-.285.51-.81.842-1.46.842-.964 0-1.76-.767-1.76-1.77s.796-1.773 1.76-1.773c.65 0 1.175.332 1.46.84v-.767h.346zm-.344 1.698c0-.81-.625-1.446-1.432-1.446-.81 0-1.44.638-1.44 1.446 0 .808.632 1.446 1.44 1.446.807 0 1.432-.638 1.432-1.446z"/><path fill="#231F20" d="M188.61 30.945v.326c-.585 0-1.134.36-1.134 1.23v1.888h-.34v-3.396h.34v.666c.23-.536.672-.713 1.133-.713"/><path fill="none" stroke="#231F20" stroke-width=".3" stroke-linecap="round" stroke-linejoin="round" stroke-miterlimit="10" d="M188.61 30.945v.326c-.585 0-1.134.36-1.134 1.23v1.888h-.34v-3.396h.34v.666c.23-.536.672-.713 1.133-.713z"/><path fill="#231F20" d="M192.568 32.704c0 .054-.006.108-.006.162h-3.076c.082.768.666 1.27 1.44 1.27.556 0 .978-.258 1.175-.618l.298.177c-.277.462-.807.767-1.48.767-1.046 0-1.786-.746-1.786-1.77 0-1 .72-1.773 1.76-1.773 1.034-.003 1.676.853 1.676 1.784m-3.082-.17h2.73c-.076-.828-.66-1.29-1.324-1.29-.775 0-1.337.536-1.406 1.29"/><path fill="none" stroke="#231F20" stroke-width=".3" stroke-linecap="round" stroke-linejoin="round" stroke-miterlimit="10" d="M192.568 32.704c0 .054-.006.108-.006.162h-3.076c.082.768.666 1.27 1.44 1.27.556 0 .978-.258 1.175-.618l.298.177c-.277.462-.807.767-1.48.767-1.046 0-1.786-.746-1.786-1.77 0-1 .72-1.773 1.76-1.773 1.034-.003 1.676.853 1.676 1.784zm-3.082-.17h2.73c-.076-.828-.66-1.29-1.324-1.29-.775 0-1.337.536-1.406 1.29z"/><path fill="#231F20" d="M195.723 33.498c0 .557-.49.964-1.217.964-.678 0-1.127-.318-1.29-.753l.292-.17c.123.365.49.597.998.597.477 0 .877-.21.877-.64 0-.922-2.06-.393-2.06-1.615 0-.536.464-.964 1.155-.964.55 0 .97.265 1.154.68l-.285.162c-.143-.353-.494-.516-.87-.516-.44 0-.813.23-.813.638 0 .91 2.06.373 2.06 1.616"/><path fill="none" stroke="#231F20" stroke-width=".3" stroke-linecap="round" stroke-linejoin="round" stroke-miterlimit="10" d="M195.723 33.498c0 .557-.49.964-1.217.964-.678 0-1.127-.318-1.29-.753l.292-.17c.123.365.49.597.998.597.477 0 .877-.21.877-.64 0-.922-2.06-.393-2.06-1.615 0-.536.464-.964 1.155-.964.55 0 .97.265 1.154.68l-.285.162c-.143-.353-.494-.516-.87-.516-.44 0-.813.23-.813.638 0 .91 2.06.373 2.06 1.616z"/><path fill="#231F20" d="M196.51 34.15c0-.17.13-.306.307-.306.17 0 .305.136.305.306 0 .17-.135.306-.305.306-.178 0-.307-.137-.307-.306"/><path fill="none" stroke="#231F20" stroke-width=".3" stroke-linecap="round" stroke-linejoin="round" stroke-miterlimit="10" d="M196.51 34.15c0-.17.13-.306.307-.306.17 0 .305.136.305.306 0 .17-.135.306-.305.306-.178 0-.307-.137-.307-.306z"/><path fill="#231F20" d="M199.805 32.01c0-1.357 1.1-2.45 2.457-2.45s2.46 1.093 2.46 2.45c0 1.358-1.103 2.45-2.46 2.45s-2.457-1.09-2.457-2.45m4.732 0c0-1.27-1.02-2.288-2.275-2.288s-2.28 1.02-2.28 2.288c0 1.27 1.024 2.29 2.28 2.29s2.275-1.02 2.275-2.29m-3.572 0c0-.727.564-1.304 1.318-1.304.488 0 .896.252 1.105.632l-.285.163c-.148-.305-.475-.475-.82-.475-.592 0-.98.462-.98.984s.388.984.98.984c.352 0 .678-.17.82-.482l.293.17c-.21.38-.625.63-1.113.63-.754.002-1.318-.575-1.318-1.302"/><path fill="none" stroke="#231F20" stroke-width=".3" stroke-linecap="round" stroke-linejoin="round" stroke-miterlimit="10" d="M199.805 32.01c0-1.357 1.1-2.45 2.457-2.45s2.46 1.093 2.46 2.45c0 1.358-1.103 2.45-2.46 2.45s-2.457-1.09-2.457-2.45zm4.732 0c0-1.27-1.02-2.288-2.275-2.288s-2.28 1.02-2.28 2.288c0 1.27 1.024 2.29 2.28 2.29s2.275-1.02 2.275-2.29zm-3.572 0c0-.727.564-1.304 1.318-1.304.488 0 .896.252 1.105.632l-.285.163c-.148-.305-.475-.475-.82-.475-.592 0-.98.462-.98.984s.388.984.98.984c.352 0 .678-.17.82-.482l.293.17c-.21.38-.625.63-1.113.63-.754.002-1.318-.575-1.318-1.302z"/><path fill="#231F20" d="M205.395 34.06l1.744-1.79c.413-.43.767-.877.767-1.346 0-.652-.47-1.02-1.045-1.02-.518 0-.91.245-1.135.72l-.305-.183c.283-.583.82-.882 1.44-.882.726 0 1.41.482 1.41 1.365 0 .59-.407 1.113-.89 1.603l-1.473 1.513h2.47v.347h-2.986v-.326z"/><path fill="none" stroke="#231F20" stroke-width=".3" stroke-linecap="round" stroke-linejoin="round" stroke-miterlimit="10" d="M205.395 34.06l1.744-1.79c.413-.43.767-.877.767-1.346 0-.652-.47-1.02-1.045-1.02-.518 0-.91.245-1.135.72l-.305-.183c.283-.583.82-.882 1.44-.882.726 0 1.41.482 1.41 1.365 0 .59-.407 1.113-.89 1.603l-1.473 1.513h2.47v.347h-2.986v-.326z"/><path fill="#231F20" d="M209.11 32.01c0-1.466.638-2.45 1.778-2.45s1.78.984 1.78 2.45c0 1.467-.64 2.45-1.78 2.45s-1.78-.983-1.78-2.45m3.193 0c0-1.33-.528-2.104-1.41-2.104s-1.413.774-1.413 2.104.53 2.105 1.412 2.105 1.41-.774 1.41-2.105"/><path fill="none" stroke="#231F20" stroke-width=".3" stroke-linecap="round" stroke-linejoin="round" stroke-miterlimit="10" d="M209.11 32.01c0-1.466.638-2.45 1.778-2.45s1.78.984 1.78 2.45c0 1.467-.64 2.45-1.78 2.45s-1.78-.983-1.78-2.45zm3.19 0c0-1.33-.528-2.104-1.41-2.104s-1.413.774-1.413 2.104.53 2.105 1.412 2.105 1.41-.774 1.41-2.105z"/><path fill="#231F20" d="M214.76 29.634v4.753h-.36v-4.36l-1.1.348-.09-.313 1.245-.428"/><path fill="none" stroke="#231F20" stroke-width=".3" stroke-linecap="round" stroke-linejoin="round" stroke-miterlimit="10" d="M214.76 29.634v4.753h-.36v-4.36l-1.1.348-.09-.313 1.245-.428z"/><path fill="#231F20" d="M218.543 32.072l-1.59 2.315h-.406l1.215-1.773c-.162.05-.34.076-.523.076-.923 0-1.597-.64-1.597-1.568 0-.925.674-1.563 1.596-1.563.923 0 1.595.637 1.595 1.562 0 .373-.108.692-.292.95m-1.305.27c.754 0 1.236-.508 1.236-1.22 0-.708-.482-1.218-1.236-1.218-.752 0-1.23.51-1.23 1.217.002.714.478 1.223 1.23 1.223"/><path fill="none" stroke="#231F20" stroke-width=".3" stroke-linecap="round" stroke-linejoin="round" stroke-miterlimit="10" d="M218.543 32.072l-1.59 2.315h-.406l1.215-1.773c-.162.05-.34.076-.523.076-.923 0-1.597-.64-1.597-1.568 0-.925.674-1.563 1.596-1.563.923 0 1.595.637 1.595 1.562 0 .373-.108.692-.292.95zm-1.305.27c.754 0 1.236-.508 1.236-1.22 0-.708-.482-1.218-1.236-1.218-.752 0-1.23.51-1.23 1.217.002.714.478 1.223 1.23 1.223z"/><path fill="#231F20" d="M221.336 32.01c0-1.357 1.025-2.45 2.47-2.45.878 0 1.644.447 2.038 1.14l-.318.184c-.313-.584-.97-.978-1.72-.978-1.25 0-2.11.937-2.11 2.104s.86 2.105 2.11 2.105c.755 0 1.42-.4 1.733-.998l.317.184c-.387.7-1.16 1.16-2.05 1.16-1.446 0-2.47-1.09-2.47-2.45"/><path fill="none" stroke="#231F20" stroke-width=".3" stroke-linecap="round" stroke-linejoin="round" stroke-miterlimit="10" d="M221.336 32.01c0-1.357 1.025-2.45 2.47-2.45.878 0 1.644.447 2.038 1.14l-.318.184c-.313-.584-.97-.978-1.72-.978-1.25 0-2.11.937-2.11 2.104s.86 2.105 2.11 2.105c.755 0 1.42-.4 1.733-.998l.317.184c-.387.7-1.16 1.16-2.05 1.16-1.446 0-2.47-1.09-2.47-2.45z"/><path fill="#231F20" d="M226.504 32.01c0-1.357 1.078-2.45 2.45-2.45s2.452 1.093 2.452 2.45c0 1.358-1.08 2.45-2.45 2.45-1.374 0-2.452-1.09-2.452-2.45m4.54 0c0-1.168-.915-2.104-2.09-2.104-1.175 0-2.09.937-2.09 2.104s.915 2.105 2.09 2.105c1.175 0 2.09-.937 2.09-2.105"/><path fill="none" stroke="#231F20" stroke-width=".3" stroke-linecap="round" stroke-linejoin="round" stroke-miterlimit="10" d="M226.504 32.01c0-1.357 1.078-2.45 2.45-2.45s2.452 1.093 2.452 2.45c0 1.358-1.08 2.45-2.45 2.45-1.374 0-2.452-1.09-2.452-2.45zm4.54 0c0-1.168-.915-2.104-2.09-2.104-1.175 0-2.09.937-2.09 2.104s.915 2.105 2.09 2.105c1.175 0 2.09-.937 2.09-2.105z"/><path fill="#231F20" d="M234.246 32.438h-1.502v1.95h-.36v-4.754h1.876c.773 0 1.404.63 1.404 1.405 0 .645-.44 1.187-1.045 1.35l1.18 1.997h-.413l-1.14-1.95zm-1.502-.34h1.516c.576 0 1.047-.475 1.047-1.06 0-.59-.47-1.065-1.047-1.065h-1.516V32.1z"/><path fill="none" stroke="#231F20" stroke-width=".3" stroke-linecap="round" stroke-linejoin="round" stroke-miterlimit="10" d="M234.246 32.438h-1.502v1.95h-.36v-4.754h1.876c.773 0 1.404.63 1.404 1.405 0 .645-.44 1.187-1.045 1.35l1.18 1.997h-.413l-1.14-1.95zm-1.502-.34h1.516c.576 0 1.047-.475 1.047-1.06 0-.59-.47-1.065-1.047-1.065h-1.516V32.1z"/><path fill="#231F20" d="M239.537 29.973h-1.494v4.414h-.367v-4.414h-1.492v-.34h3.353"/><path fill="none" stroke="#231F20" stroke-width=".3" stroke-linecap="round" stroke-linejoin="round" stroke-miterlimit="10" d="M239.537 29.973h-1.494v4.414h-.367v-4.414h-1.492v-.34h3.353z"/><path fill="#231F20" d="M243.09 34.047v.34h-2.736v-4.753h2.7v.34h-2.34v1.847h2.17v.34h-2.17v1.887"/><path fill="none" stroke="#231F20" stroke-width=".3" stroke-linecap="round" stroke-linejoin="round" stroke-miterlimit="10" d="M243.09 34.047v.34h-2.736v-4.753h2.7v.34h-2.34v1.847h2.17v.34h-2.17v1.887z"/><path fill="#231F20" d="M243.537 29.634h.395l1.568 4.284 1.576-4.284h.387l-1.772 4.753h-.38"/><path fill="none" stroke="#231F20" stroke-width=".3" stroke-linecap="round" stroke-linejoin="round" stroke-miterlimit="10" d="M243.537 29.634h.395l1.568 4.284 1.576-4.284h.387l-1.772 4.753h-.38z"/><path fill="#231F20" d="M250.955 33.178h-2.385l-.46 1.21h-.382l1.848-4.754h.38l1.84 4.753h-.38l-.46-1.21zm-.13-.34l-1.06-2.763-1.06 2.764h2.12z"/><path fill="none" stroke="#231F20" stroke-width=".3" stroke-linecap="round" stroke-linejoin="round" stroke-miterlimit="10" d="M250.955 33.178h-2.385l-.46 1.21h-.382l1.848-4.754h.38l1.84 4.753h-.38l-.46-1.21zm-.13-.34l-1.06-2.763-1.06 2.764h2.12z"/><path fill="#231F20" d="M252.39 34.15c0-.17.128-.306.304-.306.17 0 .307.136.307.306 0 .17-.136.306-.306.306-.176 0-.305-.137-.305-.306"/><path fill="none" stroke="#231F20" stroke-width=".3" stroke-linecap="round" stroke-linejoin="round" stroke-miterlimit="10" d="M252.39 34.15c0-.17.128-.306.304-.306.17 0 .307.136.307.306 0 .17-.136.306-.306.306-.176 0-.305-.137-.305-.306z"/><path fill="#231F20" d="M47.9 5.156c0-2.16 1.038-3.638 2.848-3.638 1.81 0 2.85 1.48 2.85 3.638s-1.04 3.638-2.85 3.638-2.85-1.48-2.85-3.638m4.1 0c0-1.35-.41-2.08-1.25-2.08s-1.25.73-1.25 2.08.41 2.08 1.25 2.08 1.25-.73 1.25-2.08M59.43 6.685c0 1.28-.918 2.11-2.568 2.11-1.647 0-2.567-.83-2.567-2.11 0-.69.32-1.3.91-1.68-.41-.32-.67-.78-.67-1.41 0-1.357 1.038-2.077 2.327-2.077 1.29 0 2.33.72 2.33 2.078 0 .63-.26 1.09-.67 1.41.59.38.91.99.91 1.68m-1.6-.23c0-.53-.41-.84-.97-.84s-.968.31-.968.84.41.84.968.84c.56 0 .97-.31.97-.84m-1.7-2.76c0 .39.28.68.73.68.45 0 .73-.29.73-.68s-.28-.68-.73-.68c-.448 0-.73.29-.73.68M60.13 5.156c0-2.16 1.04-3.638 2.85-3.638s2.848 1.48 2.848 3.638-1.04 3.638-2.85 3.638-2.848-1.48-2.848-3.638m4.098 0c0-1.35-.41-2.08-1.25-2.08s-1.248.73-1.248 2.08.41 2.08 1.25 2.08 1.248-.73 1.248-2.08M66.526 5.156c0-2.16 1.04-3.638 2.85-3.638 1.808 0 2.848 1.48 2.848 3.638s-1.04 3.638-2.85 3.638-2.848-1.48-2.848-3.638m4.098 0c0-1.35-.41-2.08-1.25-2.08s-1.248.73-1.248 2.08.41 2.08 1.25 2.08 1.248-.73 1.248-2.08M79.917 1.658v1.34l-2.28 5.656h-1.7l2.2-5.457H75.32v-1.54M84.914 1.658v1.34l-2.28 5.656h-1.7l2.2-5.457h-2.818v-1.54M85.432 7.495l2.35-2.438c.41-.42.71-.83.71-1.24 0-.44-.28-.74-.75-.74-.49 0-.84.32-1.03.76l-1.35-.79c.45-1.04 1.39-1.53 2.36-1.53 1.248 0 2.367.82 2.367 2.23 0 .84-.45 1.56-1.09 2.198l-1.16 1.17h2.35v1.54h-4.758v-1.16zM93.457 7.495l2.35-2.438c.41-.42.71-.83.71-1.24 0-.44-.28-.74-.75-.74-.49 0-.84.32-1.03.76l-1.35-.79c.45-1.04 1.39-1.53 2.36-1.53 1.248 0 2.367.82 2.367 2.23 0 .84-.45 1.56-1.09 2.198l-1.158 1.17h2.35v1.54h-4.76v-1.16zM104.36 7.535h-.7v1.12h-1.62v-1.12h-3.177v-1.48l2.228-4.397h1.72l-2.228 4.398h1.46v-1.5h1.618v1.5h.7M109.544 5.406l-2.138 3.248h-1.84l1.52-2.21c-1.39-.108-2.328-1.098-2.328-2.457 0-1.45 1.06-2.47 2.6-2.47 1.548 0 2.598 1.02 2.598 2.47 0 .538-.15 1.03-.412 1.42m-2.187-.45c.54 0 1-.35 1-.97s-.46-.97-1-.97c-.53 0-1 .36-1 .97s.47.97 1 .97M110.474 7.495l2.35-2.438c.41-.42.71-.83.71-1.24 0-.44-.28-.74-.75-.74-.49 0-.84.32-1.03.76l-1.35-.79c.45-1.04 1.39-1.53 2.36-1.53 1.248 0 2.367.82 2.367 2.23 0 .84-.448 1.56-1.088 2.198l-1.16 1.17h2.35v1.54h-4.758v-1.16zM118.878 1.458h1.5v9.195h-1.5zM128.102 7.155c0 1.15-1 1.64-2.08 1.64-.998 0-1.758-.38-2.147-1.19l1.3-.74c.13.38.41.59.85.59.36 0 .54-.11.54-.31 0-.55-2.46-.26-2.46-1.99 0-1.09.92-1.638 1.96-1.638.81 0 1.528.36 1.948 1.07l-1.28.69c-.14-.26-.34-.44-.67-.44-.26 0-.42.1-.42.28 0 .568 2.46.188 2.46 2.038M134.128 3.657v4.997h-1.5v-.47c-.33.38-.818.61-1.488.61-1.31 0-2.39-1.15-2.39-2.64 0-1.488 1.08-2.637 2.39-2.637.67 0 1.16.23 1.49.61v-.47h1.498zm-1.5 2.498c0-.75-.5-1.22-1.188-1.22s-1.19.47-1.19 1.22.5 1.22 1.19 1.22 1.19-.47 1.19-1.22M135.176 2.316c0-.49.41-.9.9-.9s.9.41.9.9c0 .49-.41.9-.9.9s-.9-.41-.9-.9m.15 1.34h1.5v4.998h-1.5V3.657zM143.402 6.155c0 1.49-1.08 2.64-2.39 2.64-.67 0-1.16-.23-1.49-.61v.47h-1.497V1.657h1.498v2.47c.33-.38.82-.61 1.49-.61 1.31 0 2.39 1.148 2.39 2.637m-1.5 0c0-.75-.5-1.22-1.19-1.22s-1.19.47-1.19 1.22.5 1.22 1.19 1.22 1.19-.47 1.19-1.22M149.477 3.657v4.997h-1.498v-.47c-.33.38-.82.61-1.49.61-1.31 0-2.39-1.15-2.39-2.64 0-1.488 1.08-2.637 2.39-2.637.67 0 1.16.23 1.49.61v-.47h1.497zm-1.498 2.498c0-.75-.5-1.22-1.19-1.22s-1.19.47-1.19 1.22.5 1.22 1.19 1.22 1.19-.47 1.19-1.22M160.77 5.585v3.068h-1.498V5.715c0-.5-.24-.82-.72-.82-.5 0-.78.35-.78.94v2.818h-1.5V5.715c0-.5-.238-.82-.72-.82-.5 0-.778.35-.778.94v2.818h-1.5V3.656h1.5v.46c.23-.34.67-.6 1.338-.6.59 0 1.03.24 1.31.66.28-.4.74-.66 1.45-.66 1.148.002 1.898.82 1.898 2.07M167.025 3.657v4.997h-1.5v-.47c-.33.38-.818.61-1.488.61-1.31 0-2.39-1.15-2.39-2.64 0-1.488 1.08-2.637 2.39-2.637.67 0 1.158.23 1.488.61v-.47h1.5zm-1.5 2.498c0-.75-.5-1.22-1.19-1.22s-1.188.47-1.188 1.22.5 1.22 1.19 1.22 1.188-.47 1.188-1.22M168.072 2.316c0-.49.41-.9.9-.9s.9.41.9.9c0 .49-.41.9-.9.9s-.9-.41-.9-.9m.15 1.34h1.5v4.998h-1.5V3.657zM174.8 7.155c0 1.15-1 1.64-2.08 1.64-1 0-1.76-.38-2.147-1.19l1.3-.74c.128.38.41.59.85.59.358 0 .538-.11.538-.31 0-.55-2.458-.26-2.458-1.99 0-1.09.92-1.638 1.96-1.638.81 0 1.528.36 1.948 1.07l-1.28.69c-.14-.26-.34-.44-.67-.44-.26 0-.42.1-.42.28 0 .568 2.46.188 2.46 2.038M175.598 4.446c0-.52.43-.95.95-.95s.948.43.948.95-.43.95-.95.95-.948-.43-.948-.95m0 3.398c0-.52.43-.95.95-.95s.948.43.948.95-.43.95-.95.95-.948-.43-.948-.95M180.943 6.155c0-1.49 1.13-2.638 2.648-2.638.972 0 1.83.51 2.26 1.28l-1.31.758c-.17-.35-.53-.56-.97-.56-.65 0-1.128.47-1.128 1.16s.48 1.16 1.13 1.16c.438 0 .81-.21.968-.56l1.31.75c-.43.78-1.278 1.29-2.26 1.29-1.516 0-2.647-1.15-2.647-2.64M186.35 6.155c0-1.49 1.18-2.638 2.648-2.638 1.47 0 2.648 1.15 2.648 2.638 0 1.49-1.178 2.64-2.648 2.64-1.47 0-2.648-1.15-2.648-2.64m3.798 0c0-.71-.5-1.18-1.15-1.18-.648 0-1.148.47-1.148 1.18s.5 1.18 1.148 1.18c.65 0 1.15-.47 1.15-1.18M195.594 3.556v1.7c-.62-.1-1.5.15-1.5 1.14v2.258h-1.498V3.657h1.498v.89c.2-.67.87-.99 1.5-.99M198.29 5.096v1.77c0 .428.372.468 1.032.428v1.36c-1.96.2-2.53-.39-2.53-1.79V5.097h-.798v-1.44h.8v-.95l1.497-.45v1.4h1.032v1.44h-1.03zM202.908 7.454c.41 0 .76-.16.96-.38l1.198.69c-.488.68-1.23 1.03-2.178 1.03-1.71 0-2.77-1.15-2.77-2.64 0-1.49 1.08-2.637 2.658-2.637 1.46 0 2.54 1.13 2.54 2.638 0 .21-.02.41-.06.6h-3.55c.192.52.653.7 1.202.7m.92-1.82c-.16-.58-.61-.79-1.06-.79-.57 0-.95.28-1.09.79h2.15zM211.113 3.657l-1.85 4.997h-1.7l-1.846-4.997h1.658l1.04 3.168 1.04-3.168M216.89 3.657v4.997h-1.5v-.47c-.33.38-.82.61-1.49.61-1.308 0-2.388-1.15-2.388-2.64 0-1.488 1.08-2.637 2.39-2.637.67 0 1.16.23 1.49.61v-.47h1.497zm-1.5 2.498c0-.75-.5-1.22-1.188-1.22s-1.19.47-1.19 1.22.5 1.22 1.19 1.22 1.19-.47 1.19-1.22M217.988 7.844c0-.52.43-.95.95-.95s.946.43.946.95-.428.95-.947.95-.95-.43-.95-.95M220.734 6.155c0-1.49 1.13-2.638 2.648-2.638.97 0 1.83.51 2.26 1.28l-1.31.758c-.17-.35-.53-.56-.97-.56-.65 0-1.13.47-1.13 1.16s.48 1.16 1.13 1.16c.44 0 .81-.21.97-.56l1.31.75c-.43.78-1.28 1.29-2.26 1.29-1.517 0-2.648-1.15-2.648-2.64M226.14 6.155c0-1.49 1.18-2.638 2.65-2.638s2.647 1.15 2.647 2.638c0 1.49-1.178 2.64-2.648 2.64-1.47 0-2.65-1.15-2.65-2.64m3.8 0c0-.71-.5-1.18-1.15-1.18-.65 0-1.15.47-1.15 1.18s.5 1.18 1.15 1.18c.65 0 1.15-.47 1.15-1.18M239.883 5.585v3.068h-1.498V5.715c0-.5-.24-.82-.72-.82-.5 0-.78.35-.78.94v2.818h-1.5V5.715c0-.5-.238-.82-.72-.82-.5 0-.778.35-.778.94v2.818h-1.5V3.656h1.5v.46c.23-.34.67-.6 1.338-.6.59 0 1.03.24 1.31.66.28-.4.74-.66 1.45-.66 1.148.002 1.898.82 1.898 2.07M240.912 7.844c0-.52.43-.95.95-.95s.948.43.948.95-.43.95-.95.95-.948-.43-.948-.95M249.285 6.155c0 1.49-1.078 2.64-2.39 2.64-.67 0-1.157-.23-1.487-.61v.47h-1.5V1.657h1.5v2.47c.33-.38.818-.61 1.488-.61 1.31 0 2.39 1.148 2.39 2.637m-1.5 0c0-.75-.5-1.22-1.188-1.22s-1.19.47-1.19 1.22.5 1.22 1.19 1.22 1.19-.47 1.19-1.22M253.232 3.556v1.7c-.62-.1-1.498.15-1.498 1.14v2.258h-1.5V3.657h1.5v.89c.2-.67.87-.99 1.498-.99"/></svg>